<svg width="21" height="20" viewBox="0 0 21 20" fill="none" xmlns="http://www.w3.org/2000/svg">
<path d="M20.9598 9.93813C20.9364 8.02072 20.3689 6.14995 19.3241 4.54617C18.2793 2.94238 16.8009 1.67236 15.0629 0.885686C13.3247 0.0990116 11.3994 -0.171552 9.51357 0.105841C7.62781 0.383247 5.86005 1.19705 4.41855 2.45145C2.97703 3.70584 1.92179 5.34856 1.37709 7.18615C0.832397 9.02376 0.820922 10.9797 1.34404 12.8236C1.86715 14.6676 2.90306 16.3226 4.32976 17.5941C5.75645 18.8655 7.51454 19.7003 9.39694 20V12.8687H6.89688V9.93813H9.39694V7.71195C9.33907 7.19434 9.39482 6.67023 9.56032 6.17664C9.72583 5.68306 9.99696 5.23203 10.3546 4.85541C10.7122 4.47877 11.1476 4.1857 11.6301 3.9969C12.1126 3.80809 12.6305 3.72814 13.1471 3.7627C13.8968 3.77303 14.6448 3.8403 15.3846 3.96394V6.4794H14.1346C13.9191 6.45205 13.7001 6.47378 13.4941 6.543C13.2879 6.61221 13.0999 6.72713 12.9439 6.87926C12.7879 7.0314 12.6679 7.21686 12.5928 7.42191C12.5175 7.62705 12.4892 7.84652 12.5095 8.06411V9.96329H15.2846L14.8346 12.8938H12.522V19.9371C14.8845 19.5612 17.0348 18.3457 18.5828 16.5112C20.1309 14.6766 20.9742 12.3447 20.9598 9.93813Z" fill="#800000"/>
</svg>
