<svg width="21" height="20" viewBox="0 0 21 20" fill="none" xmlns="http://www.w3.org/2000/svg">
<path d="M15.3919 0.0643364C16.4065 0.110644 17.1079 0.259738 17.757 0.51201C18.4064 0.764387 18.8982 1.08432 19.387 1.57306C19.8757 2.06179 20.1956 2.55352 20.448 3.20301C20.7003 3.8522 20.8493 4.55349 20.8956 5.5681C20.953 6.82642 20.96 7.26996 20.96 9.99998C20.96 12.73 20.953 13.1736 20.8956 14.4319C20.8493 15.4465 20.7003 16.1478 20.448 16.7972C20.1955 17.4465 19.8756 17.9383 19.387 18.4269C18.8983 18.9156 18.4065 19.2356 17.7569 19.488C17.1076 19.7403 16.4064 19.8894 15.3919 19.9356C14.1339 19.993 13.6904 20 10.96 20C8.22949 20 7.78605 19.993 6.52806 19.9356C5.51351 19.8894 4.81222 19.7403 4.16281 19.488C3.51343 19.2356 3.02162 18.9156 2.53298 18.4269C2.04427 17.9382 1.72431 17.4464 1.47189 16.797C1.21966 16.1478 1.0706 15.4465 1.0243 14.4319C0.966922 13.1744 0.959961 12.7312 0.959961 9.99998C0.959961 7.26878 0.966922 6.82559 1.0243 5.56805C1.0706 4.55349 1.21966 3.8522 1.47193 3.20292C1.72429 2.55358 2.04424 2.0618 2.53294 1.5731C3.02162 1.08437 3.51343 0.764416 4.16284 0.512012C4.81193 0.259747 5.51337 0.110645 6.52799 0.0643363C7.78558 0.00696018 8.22873 0 10.96 0C13.6912 0 14.1343 0.00696029 15.3919 0.0643364ZM10.96 2.22222C8.25962 2.22222 7.84663 2.22871 6.62929 2.28425C5.85675 2.31951 5.3929 2.41811 4.96786 2.5833C4.60494 2.72435 4.37434 2.87437 4.10433 3.14441C3.83426 3.41448 3.68424 3.64507 3.54326 4.00781C3.37804 4.43305 3.27947 4.89682 3.24421 5.66935C3.18867 6.88664 3.18218 7.29967 3.18218 9.99998C3.18218 12.7003 3.18867 13.1134 3.24421 14.3306C3.27947 15.1032 3.37804 15.567 3.54321 15.9921C3.68425 16.3549 3.83429 16.5856 4.10437 16.8556C4.37434 17.1256 4.60494 17.2757 4.96773 17.4167C5.39306 17.5819 5.8568 17.6805 6.62933 17.7157C7.84713 17.7713 8.26039 17.7778 10.96 17.7778C13.6595 17.7778 14.0728 17.7713 15.2906 17.7157C16.0631 17.6805 16.5268 17.5819 16.9521 17.4167C17.315 17.2756 17.5456 17.1256 17.8156 16.8556C18.0856 16.5856 18.2356 16.355 18.3767 15.9922C18.5419 15.567 18.6405 15.1032 18.6757 14.3306C18.7312 13.1126 18.7377 12.6992 18.7377 9.99998C18.7377 7.30082 18.7312 6.88744 18.6757 5.66936C18.6405 4.89682 18.5419 4.43305 18.3767 4.00798C18.2356 3.64503 18.0856 3.41441 17.8156 3.14437C17.5456 2.87437 17.315 2.72436 16.952 2.58331C16.527 2.4181 16.0632 2.31951 15.2906 2.28425C14.0733 2.22871 13.6603 2.22222 10.96 2.22222ZM10.96 15.1852C8.09626 15.1852 5.77478 12.8637 5.77478 10C5.77478 7.1363 8.09626 4.81481 10.96 4.81481C13.8237 4.81481 16.1451 7.1363 16.1451 10C16.1451 12.8637 13.8237 15.1852 10.96 15.1852ZM10.96 12.963C12.5964 12.963 13.9229 11.6364 13.9229 10C13.9229 8.3636 12.5964 7.03704 10.96 7.03704C9.32356 7.03704 7.997 8.3636 7.997 10C7.997 11.6364 9.32356 12.963 10.96 12.963ZM16.1451 5.92593C15.5315 5.92593 15.034 5.42846 15.034 4.81481C15.034 4.20116 15.5315 3.7037 16.1451 3.7037C16.7588 3.7037 17.2563 4.20116 17.2563 4.81481C17.2563 5.42846 16.7588 5.92593 16.1451 5.92593Z" fill="#800000"/>
</svg>
