<svg width="21" height="20" viewBox="0 0 21 20" fill="none" xmlns="http://www.w3.org/2000/svg">
<path d="M11.4641 0.0166745C12.7206 6.33595e-08 13.9678 0.00867071 15.2143 0C15.2557 1.35463 15.8882 2.57387 16.8944 3.47696L16.8928 3.47562C17.9758 4.32335 19.385 4.87294 20.9385 4.96632L20.96 4.96765V8.32655C19.4925 8.29454 18.1124 8.0004 16.8683 7.49483L16.9312 7.51751C16.3295 7.26606 15.8206 7.00794 15.3371 6.7198L15.377 6.74248C15.3678 9.17628 15.3862 11.6101 15.3578 14.0352C15.2787 15.2711 14.8059 16.3983 14.0476 17.3394L14.063 17.3187C12.795 18.8968 10.7411 19.9326 8.40556 19.994H8.39481C8.30041 19.998 8.18912 20 8.07706 20C6.74924 20 5.50815 19.6785 4.4505 19.1203L4.4812 19.1356C2.55625 18.1291 1.22843 16.407 0.982827 14.4041L0.979757 14.3767C0.960569 13.9598 0.951358 13.543 0.970546 13.1348C1.34663 9.94731 4.4198 7.48149 8.15535 7.48149C8.57518 7.48149 8.98658 7.51284 9.38646 7.5722L9.34347 7.56686C9.36266 8.80011 9.3051 10.034 9.3051 11.2673C8.98044 11.1652 8.60588 11.1059 8.21521 11.1059C6.78148 11.1059 5.56188 11.9022 5.11058 13.0141L5.10367 13.0341C5.00159 13.3189 4.94249 13.6464 4.94249 13.9852C4.94249 14.1226 4.95247 14.2587 4.97089 14.3921L4.96935 14.376C5.22417 15.7407 6.57041 16.7705 8.19372 16.7705C8.24054 16.7705 8.28659 16.7698 8.33264 16.7678H8.32574C9.44863 16.7385 10.4234 16.2136 10.9745 15.4379L10.9821 15.4259C11.1871 15.1778 11.3275 14.8776 11.3743 14.5515L11.3751 14.5421C11.4711 13.0501 11.4327 11.5667 11.4419 10.0747C11.4511 6.7158 11.4327 3.3649 11.4611 0.0146736L11.4641 0.0166745Z" fill="#800000"/>
</svg>
