<svg width="225" height="197" viewBox="0 0 225 197" fill="none" xmlns="http://www.w3.org/2000/svg">
<path fill-rule="evenodd" clip-rule="evenodd" d="M0 0H225V197H0V0ZM0.351562 0.351786H27.7734V27.7911H0.351562V0.351786ZM28.4766 0.351786H55.8984V27.7911H28.4766V0.351786ZM84.0234 0.351786H56.6016V27.7911H84.0234V0.351786ZM84.7266 0.351786H112.148V27.7911H84.7266V0.351786ZM140.273 0.351786H112.852V27.7911H140.273V0.351786ZM140.977 0.351786H168.398V27.7911H140.977V0.351786ZM196.523 0.351786H169.102V27.7911H196.523V0.351786ZM197.227 0.351786H224.648V27.7911H197.227V0.351786ZM27.7734 28.4946H0.351562V55.9339H27.7734V28.4946ZM28.4766 28.4946H55.8984V55.9339H28.4766V28.4946ZM84.0234 28.4946H56.6016V55.9339H84.0234V28.4946ZM84.7266 28.4946H112.148V55.9339H84.7266V28.4946ZM140.273 28.4946H112.852V55.9339H140.273V28.4946ZM140.977 28.4946H168.398V55.9339H140.977V28.4946ZM196.523 28.4946H169.102V55.9339H196.523V28.4946ZM197.227 28.4946H224.648V55.9339H197.227V28.4946ZM27.7734 56.6375H0.351562V84.0768H27.7734V56.6375ZM28.4766 56.6375H55.8984V84.0768H28.4766V56.6375ZM84.0234 56.6375H56.6016V84.0768H84.0234V56.6375ZM84.7266 56.6375H112.148V84.0768H84.7266V56.6375ZM140.273 56.6375H112.852V84.0768H140.273V56.6375ZM140.977 56.6375H168.398V84.0768H140.977V56.6375ZM196.523 56.6375H169.102V84.0768H196.523V56.6375ZM197.227 56.6375H224.648V84.0768H197.227V56.6375ZM27.7734 84.7804H0.351562V112.22H27.7734V84.7804ZM28.4766 84.7804H55.8984V112.22H28.4766V84.7804ZM84.0234 84.7804H56.6016V112.22H84.0234V84.7804ZM84.7266 84.7804H112.148V112.22H84.7266V84.7804ZM140.273 84.7804H112.852V112.22H140.273V84.7804ZM140.977 84.7804H168.398V112.22H140.977V84.7804ZM196.523 84.7804H169.102V112.22H196.523V84.7804ZM197.227 84.7804H224.648V112.22H197.227V84.7804ZM27.7734 112.923H0.351562V140.363H27.7734V112.923ZM28.4766 112.923H55.8984V140.363H28.4766V112.923ZM84.0234 112.923H56.6016V140.363H84.0234V112.923ZM84.7266 112.923H112.148V140.363H84.7266V112.923ZM140.273 112.923H112.852V140.363H140.273V112.923ZM140.977 112.923H168.398V140.363H140.977V112.923ZM196.523 112.923H169.102V140.363H196.523V112.923ZM197.227 112.923H224.648V140.363H197.227V112.923ZM27.7734 141.066H0.351562V168.505H27.7734V141.066ZM28.4766 141.066H55.8984V168.505H28.4766V141.066ZM84.0234 141.066H56.6016V168.505H84.0234V141.066ZM84.7266 141.066H112.148V168.505H84.7266V141.066ZM140.273 141.066H112.852V168.505H140.273V141.066ZM140.977 141.066H168.398V168.505H140.977V141.066ZM196.523 141.066H169.102V168.505H196.523V141.066ZM197.227 141.066H224.648V168.505H197.227V141.066ZM27.7734 169.209H0.351562V196.648H27.7734V169.209ZM28.4766 169.209H55.8984V196.648H28.4766V169.209ZM84.0234 169.209H56.6016V196.648H84.0234V169.209ZM84.7266 169.209H112.148V196.648H84.7266V169.209ZM140.273 169.209H112.852V196.648H140.273V169.209ZM140.977 169.209H168.398V196.648H140.977V169.209ZM196.523 169.209H169.102V196.648H196.523V169.209ZM197.227 169.209H224.648V196.648H197.227V169.209Z" fill="#E0C698"/>
<path d="M127.452 78.3956C127.494 78.4217 127.494 78.4217 127.537 78.4483C127.876 78.6612 128.207 78.882 128.529 79.1211C128.594 79.1688 128.659 79.2153 128.725 79.2617C128.927 79.4048 129.122 79.5565 129.315 79.712C129.332 79.7256 129.349 79.7391 129.366 79.7531C129.711 80.0314 130.049 80.3173 130.373 80.62C130.405 80.6489 130.437 80.6773 130.469 80.7055C130.678 80.8902 130.873 81.0878 131.07 81.2856C131.13 81.3461 131.19 81.4065 131.251 81.4668C131.289 81.5059 131.328 81.5449 131.367 81.5839C131.385 81.6017 131.403 81.6194 131.421 81.6377C131.523 81.7409 131.621 81.8469 131.716 81.9572C131.766 82.0156 131.818 82.0724 131.869 82.1293C131.972 82.243 132.069 82.3601 132.165 82.4792C132.219 82.5457 132.274 82.6112 132.33 82.6763C132.489 82.862 132.636 83.0552 132.781 83.2523C132.82 83.3047 132.859 83.3567 132.898 83.4085C133.089 83.6602 133.269 83.9182 133.443 84.1819C133.486 84.2468 133.529 84.3116 133.572 84.3764C134.02 85.0493 134.415 85.7525 134.781 86.4729C134.82 86.5494 134.859 86.6256 134.898 86.7019C135.846 88.5525 136.483 90.594 137.369 96.2201C137.37 96.2415 137.371 96.263 137.373 96.285C137.541 99.0129 137.32 101.752 136.293 106.936C136.287 106.961 136.281 106.986 136.275 107.012C135.918 108.489 135.48 109.946 135.048 111.402C134.926 111.815 134.805 112.228 134.684 112.641C134.673 112.677 134.663 112.713 134.653 112.749C134.489 113.308 134.331 113.87 134.182 114.433C134.083 114.805 133.977 115.173 133.793 115.512C133.783 115.531 133.773 115.549 133.763 115.568C133.611 115.844 133.412 116.08 133.197 116.309C133.172 116.337 133.172 116.337 133.146 116.366C132.734 116.803 132.192 117.117 131.67 117.401C131.539 117.473 131.408 117.545 131.277 117.618C131.228 117.645 131.179 117.672 131.129 117.7C130.653 117.963 130.179 118.23 129.711 118.506C129.603 118.569 129.494 118.632 129.386 118.695C128.994 118.92 128.607 119.152 128.221 119.389C128.14 119.439 128.058 119.489 127.976 119.538C127.445 119.862 126.919 120.193 126.395 120.529C126.325 120.574 126.254 120.619 126.184 120.663C125.845 120.879 125.509 121.097 125.175 121.318C125.094 121.371 125.013 121.425 124.932 121.478C124.14 121.999 124.14 121.999 123.361 122.537C123.264 122.605 123.166 122.671 123.067 122.736C122.405 123.178 121.757 123.643 121.107 124.104C121.035 124.156 120.962 124.207 120.889 124.259C120.675 124.41 120.463 124.562 120.252 124.715C120.134 124.801 120.016 124.886 119.897 124.971C119.698 125.113 119.5 125.257 119.302 125.401C119.242 125.444 119.183 125.487 119.124 125.53C118.9 125.691 118.678 125.854 118.457 126.018C118.315 126.123 118.173 126.227 118.029 126.33C117.864 126.449 117.701 126.57 117.539 126.693C117.404 126.795 117.27 126.895 117.134 126.995C117.113 127.01 117.093 127.026 117.071 127.042C116.986 127.104 116.901 127.167 116.816 127.23C116.584 127.401 116.351 127.574 116.121 127.748C115.988 127.848 115.855 127.946 115.721 128.045C115.518 128.194 115.318 128.347 115.118 128.5C114.968 128.615 114.816 128.729 114.663 128.841C114.436 129.009 114.211 129.18 113.987 129.352C113.892 129.425 113.797 129.497 113.701 129.569C113.49 129.727 113.283 129.89 113.076 130.052C113.059 130.066 113.042 130.079 113.024 130.093C112.847 130.232 112.672 130.372 112.498 130.515C112.403 130.594 112.307 130.672 112.211 130.75C112.157 130.794 112.103 130.838 112.049 130.882C112.007 130.916 111.964 130.951 111.922 130.986C111.751 131.125 111.582 131.268 111.414 131.411C111.372 131.447 111.329 131.483 111.287 131.52C111.109 131.67 110.932 131.821 110.756 131.973C110.694 132.027 110.631 132.08 110.569 132.133C110.393 132.284 110.22 132.437 110.051 132.594C109.976 132.663 109.9 132.731 109.823 132.798C109.74 132.871 109.658 132.945 109.576 133.019C109.511 133.078 109.446 133.137 109.381 133.195C109.23 133.332 109.081 133.469 108.931 133.607C108.918 133.619 108.905 133.631 108.891 133.644C108.433 134.063 108.433 134.063 107.992 134.499C107.942 134.547 107.892 134.592 107.84 134.637C107.724 134.738 107.615 134.845 107.506 134.955C107.485 134.975 107.465 134.996 107.443 135.018C107.376 135.086 107.308 135.154 107.24 135.222C107.192 135.269 107.145 135.317 107.098 135.365C106.998 135.464 106.899 135.564 106.8 135.664C106.686 135.778 106.571 135.893 106.457 136.008C106.346 136.119 106.236 136.23 106.125 136.341C106.078 136.388 106.032 136.435 105.985 136.481C105.919 136.547 105.854 136.613 105.788 136.679C105.769 136.698 105.75 136.717 105.73 136.737C105.626 136.842 105.527 136.949 105.431 137.062C105.364 137.138 105.292 137.209 105.219 137.28C105.111 137.387 105.006 137.496 104.907 137.613C104.846 137.683 104.779 137.748 104.713 137.813C104.663 137.864 104.616 137.917 104.569 137.971C104.475 138.08 104.377 138.185 104.278 138.29C104.15 138.426 104.023 138.563 103.899 138.703C103.832 138.779 103.763 138.854 103.694 138.928C103.6 139.031 103.508 139.135 103.417 139.24C103.36 139.305 103.301 139.369 103.242 139.434C103.156 139.528 103.074 139.624 102.994 139.723C102.887 139.856 102.773 139.98 102.656 140.105C102.549 140.22 102.449 140.339 102.351 140.462C102.291 140.535 102.228 140.606 102.163 140.676C102.058 140.791 101.959 140.91 101.861 141.031C101.784 141.125 101.705 141.216 101.625 141.308C101.507 141.444 101.392 141.581 101.279 141.721C101.208 141.808 101.135 141.894 101.061 141.979C100.927 142.135 100.797 142.293 100.668 142.453C100.628 142.502 100.589 142.55 100.55 142.598C100.52 142.634 100.52 142.634 100.49 142.671C100.452 142.718 100.414 142.764 100.376 142.811C100.232 142.988 100.088 143.166 99.9436 143.344C99.8848 143.416 99.826 143.489 99.767 143.561C99.5958 143.772 99.4268 143.984 99.2601 144.198C99.2004 144.275 99.1405 144.351 99.0806 144.428C99.0077 144.521 98.9349 144.614 98.8623 144.707C98.7911 144.799 98.7195 144.89 98.6477 144.981C98.6169 145.02 98.6169 145.02 98.5854 145.06C98.4743 145.199 98.3582 145.327 98.2311 145.452C98.1634 145.519 98.1011 145.591 98.039 145.663C97.9873 145.723 97.9339 145.781 97.8804 145.84C97.7485 145.987 97.6281 146.141 97.5078 146.298C97.465 146.353 97.4217 146.407 97.3783 146.462C97.0968 146.818 96.844 147.189 96.6152 147.582C96.6021 147.601 96.5889 147.62 96.5753 147.64C96.558 147.64 96.5407 147.64 96.5228 147.64C96.6078 147.146 96.7018 146.654 96.8065 146.164C96.8173 146.113 96.8173 146.113 96.8283 146.061C97.3063 143.82 97.8958 141.607 98.8904 138.536C98.9106 138.476 98.9307 138.416 98.9508 138.356C99.1623 137.725 99.3842 137.099 99.6184 136.477C99.6268 136.454 99.6353 136.432 99.644 136.409C100.036 135.367 100.454 134.335 100.904 133.317C100.912 133.298 100.921 133.279 100.929 133.259C101.233 132.571 101.549 131.889 101.874 131.211C101.885 131.19 101.895 131.168 101.906 131.146C102.15 130.637 102.399 130.13 102.65 129.625C102.661 129.603 102.671 129.582 102.682 129.56C102.807 129.309 102.934 129.06 103.065 128.812C103.133 128.683 103.2 128.554 103.266 128.424C103.275 128.407 103.283 128.391 103.291 128.375C103.308 128.342 103.324 128.31 103.341 128.277C103.481 128.004 103.623 127.732 103.771 127.463C103.882 127.259 103.99 127.054 104.098 126.848C104.255 126.548 104.415 126.25 104.583 125.956C104.694 125.761 104.8 125.564 104.904 125.366C105.065 125.064 105.23 124.765 105.399 124.468C105.459 124.361 105.519 124.254 105.578 124.147C105.728 123.877 105.881 123.609 106.037 123.343C106.152 123.146 106.264 122.946 106.374 122.746C106.542 122.44 106.716 122.138 106.892 121.837C106.969 121.706 107.045 121.574 107.121 121.443C107.152 121.39 107.183 121.337 107.213 121.284C107.274 121.181 107.334 121.077 107.394 120.974C107.487 120.814 107.579 120.655 107.672 120.495C107.681 120.48 107.689 120.465 107.698 120.45C107.917 120.075 108.136 119.7 108.359 119.328C108.482 119.123 108.604 118.917 108.726 118.711C108.911 118.397 109.098 118.084 109.288 117.773C109.431 117.536 109.572 117.299 109.712 117.061C109.862 116.807 110.013 116.554 110.168 116.303C110.285 116.116 110.399 115.927 110.514 115.738C110.677 115.466 110.843 115.195 111.009 114.925C111.122 114.741 111.234 114.556 111.346 114.37C111.487 114.138 111.631 113.906 111.775 113.676C111.888 113.494 112 113.311 112.111 113.128C112.232 112.927 112.356 112.727 112.481 112.528C112.592 112.353 112.701 112.176 112.809 111.999C112.994 111.697 113.181 111.396 113.369 111.095C113.45 110.964 113.532 110.832 113.614 110.701C113.647 110.648 113.68 110.596 113.712 110.543C113.729 110.517 113.745 110.491 113.762 110.464C115.483 107.699 115.483 107.699 115.532 107.62C115.565 107.568 115.598 107.515 115.631 107.462C115.712 107.331 115.794 107.2 115.876 107.069C116.099 106.712 116.319 106.354 116.539 105.995C116.591 105.91 116.643 105.825 116.696 105.74C116.801 105.568 116.906 105.396 117.011 105.224C117.02 105.21 117.03 105.195 117.039 105.179C117.301 104.751 117.557 104.32 117.805 103.883C117.849 103.806 117.893 103.729 117.937 103.652C118.149 103.281 118.347 102.904 118.54 102.523C118.581 102.443 118.621 102.364 118.662 102.284C119.656 100.343 120.501 97.784 120.125 95.0188C119.999 94.6357 119.793 94.3215 119.433 94.1262C119.135 93.9933 118.823 93.9281 118.507 94.0348C118.078 94.224 117.828 94.5838 117.552 94.9461C117.365 95.1906 117.174 95.4307 116.975 95.6648C116.911 95.7403 116.849 95.8171 116.787 95.8943C116.685 96.0197 116.578 96.1394 116.469 96.2584C116.418 96.3141 116.369 96.3703 116.319 96.4274C116.046 96.7419 115.755 97.038 115.46 97.3327C115.391 97.4019 115.322 97.4713 115.253 97.5406C115.209 97.5853 115.164 97.6299 115.12 97.6745C115.089 97.7052 115.089 97.7052 115.058 97.7365C114.935 97.8594 114.808 97.9759 114.677 98.0894C114.634 98.1277 114.592 98.1661 114.55 98.2046C114.437 98.3073 114.32 98.4049 114.201 98.5012C114.137 98.5542 114.074 98.6083 114.011 98.663C113.791 98.8529 113.559 99.0256 113.326 99.1983C113.264 99.2449 113.202 99.292 113.139 99.3393C112.438 99.8699 111.682 100.327 110.908 100.742C110.855 100.771 110.802 100.8 110.749 100.829C108.89 101.856 106.768 102.425 103.055 102.908C103.022 102.91 102.988 102.913 102.954 102.916C101.839 103.004 100.697 103.007 99.5855 102.881C98.7683 102.788 97.9406 102.732 97.1262 102.881C97.1025 102.885 97.0788 102.889 97.0544 102.894C95.5723 103.156 94.2414 103.967 93.1483 104.983C93.0945 105.032 93.04 105.081 92.9846 105.129C92.8898 105.212 92.7978 105.297 92.7058 105.382C92.5981 105.483 92.4896 105.582 92.3785 105.678C92.3119 105.737 92.2466 105.796 92.1811 105.856C92.0823 105.947 91.9826 106.036 91.8816 106.124C91.8161 106.182 91.7519 106.241 91.6876 106.301C91.5937 106.387 91.4983 106.469 91.3991 106.549C91.2483 106.671 91.1079 106.803 90.9667 106.936C90.8439 107.052 90.7167 107.162 90.5886 107.271C90.557 107.298 90.5255 107.325 90.494 107.352C90.4701 107.373 90.4701 107.373 90.4458 107.393C90.3477 107.478 90.2514 107.564 90.1562 107.652C90.0645 107.736 89.9711 107.817 89.8742 107.895C89.7552 107.992 89.6428 108.093 89.531 108.197C89.4467 108.276 89.3603 108.35 89.2709 108.422C89.1611 108.51 89.0572 108.603 88.9544 108.7C88.8295 108.817 88.7009 108.927 88.5674 109.035C88.4884 109.101 88.413 109.17 88.3379 109.24C88.2176 109.352 88.093 109.457 87.9649 109.56C87.8856 109.627 87.81 109.696 87.7345 109.766C87.6127 109.88 87.487 109.987 87.3572 110.091C87.2682 110.165 87.1835 110.242 87.0991 110.321C87.0525 110.359 87.0525 110.359 87 110.359C87.2345 109.102 87.7168 107.903 88.2592 106.752C88.2722 106.724 88.2852 106.696 88.2986 106.667C88.4703 106.299 88.6528 105.94 88.8499 105.585C88.8884 105.515 88.9263 105.445 88.9638 105.374C89.1573 105.013 89.3635 104.659 89.5737 104.307C89.619 104.231 89.6641 104.155 89.709 104.079C89.8729 103.803 90.0418 103.53 90.214 103.259C90.2525 103.198 90.2907 103.137 90.3289 103.076C90.661 102.545 91.0062 102.022 91.3499 101.499C91.3745 101.461 91.3745 101.461 91.3996 101.423C91.5546 101.187 91.7096 100.951 91.8662 100.716C92.6511 99.5375 93.2421 98.2818 93.6633 96.931C93.6719 96.9035 93.6805 96.8761 93.6894 96.8478C93.7856 96.5342 93.8519 96.2142 93.9158 95.8926C93.9214 95.8653 93.9214 95.8653 93.927 95.8373C94.057 95.1895 94.1203 94.535 94.1561 93.8759C94.166 93.6952 94.1771 93.5145 94.1882 93.3338C94.1893 93.316 94.1904 93.2983 94.1915 93.28C94.3205 91.1945 94.7446 89.1202 97.3623 83.9509C97.3766 83.931 97.391 83.911 97.4057 83.8904C97.6121 83.6029 97.8269 83.3248 98.0543 83.0538C98.0943 83.0061 98.1341 82.9582 98.1739 82.9102C98.3223 82.7319 98.476 82.5593 98.6336 82.3891C98.6632 82.3567 98.6925 82.3238 98.7214 82.2908C98.8912 82.0979 99.0711 81.916 99.2526 81.7344C99.3053 81.6816 99.3579 81.6288 99.4104 81.5758C99.5715 81.4141 99.7328 81.2552 99.907 81.1074C99.9535 81.0648 100 81.022 100.046 80.9791C100.175 80.8619 100.307 80.7511 100.442 80.6419C100.489 80.6031 100.536 80.5637 100.583 80.5243C100.846 80.3037 101.116 80.0941 101.392 79.8901C101.449 79.848 101.506 79.8055 101.563 79.763C102.555 79.027 103.619 78.3958 104.708 77.8163C104.756 77.7906 104.804 77.7649 104.852 77.7391C105.184 77.5619 105.521 77.3962 105.862 77.2371C105.893 77.2228 105.924 77.2084 105.955 77.1936C107.835 76.3194 109.809 75.7268 114.257 75.1572C114.288 75.1552 114.319 75.1533 114.351 75.1513C116.658 75.0167 119.027 75.2504 127.452 78.3956Z" fill="#800000"/>
<path d="M136.791 60.8066C136.818 60.8287 136.844 60.8508 136.871 60.8736C137.525 61.439 137.914 62.2658 137.991 63.124C138.05 63.9718 137.826 64.8782 137.265 65.5335C137.2 65.6058 137.133 65.6756 137.065 65.7444C137.03 65.7803 136.995 65.8172 136.961 65.8541C136.413 66.4334 135.592 66.7642 134.804 66.7906C134.17 66.803 133.551 66.7166 132.997 66.3848C132.936 66.3559 132.936 66.3559 132.874 66.3754C132.778 66.4291 132.69 66.4913 132.601 66.5561C132.56 66.5848 132.52 66.6136 132.48 66.6424C132.46 66.6571 132.44 66.6718 132.419 66.6869C132.343 66.7411 132.267 66.7947 132.191 66.8482C132.019 66.9694 131.849 67.0921 131.679 67.2159C131.516 67.3345 131.352 67.4498 131.186 67.5632C131.021 67.6754 130.859 67.7902 130.699 67.9093C130.542 68.0255 130.383 68.1371 130.223 68.2488C130.076 68.3516 129.93 68.4562 129.785 68.562C129.624 68.6795 129.461 68.7937 129.297 68.9059C129.132 69.0181 128.97 69.133 128.81 69.252C128.654 69.3683 128.494 69.4798 128.334 69.5915C128.187 69.6944 128.041 69.7989 127.896 69.9048C127.735 70.0223 127.573 70.1365 127.408 70.2487C127.243 70.3609 127.081 70.4757 126.921 70.5948C126.765 70.711 126.605 70.8226 126.445 70.9343C126.298 71.0372 126.153 71.1417 126.008 71.2475C125.847 71.365 125.684 71.4792 125.519 71.5914C125.354 71.7036 125.192 71.8185 125.033 71.9375C124.876 72.0538 124.716 72.1654 124.556 72.2771C124.409 72.3799 124.264 72.4845 124.119 72.5903C123.958 72.7078 123.795 72.822 123.63 72.9342C123.466 73.0464 123.304 73.1613 123.144 73.2803C122.987 73.3963 122.828 73.5078 122.668 73.6191C122.556 73.6979 122.444 73.7774 122.333 73.8589C122.312 73.8747 122.29 73.8904 122.268 73.9067C122.227 73.9367 122.187 73.9669 122.146 73.9973C122.128 74.0107 122.109 74.0242 122.091 74.0381C122.075 74.0499 122.059 74.0618 122.042 74.074C121.992 74.1046 121.948 74.1176 121.891 74.1289C121.984 74.0171 122.079 73.9119 122.183 73.8099C122.227 73.7654 122.266 73.7199 122.306 73.6721C122.471 73.4821 122.654 73.3087 122.832 73.1317C123.042 72.9261 123.042 72.9261 123.24 72.7088C123.407 72.5118 123.598 72.3353 123.78 72.1537C123.833 72.1018 123.885 72.0499 123.937 71.9979C123.953 71.9824 123.968 71.9668 123.984 71.9508C124.063 71.8721 124.139 71.7919 124.212 71.7073C124.303 71.6013 124.4 71.5023 124.499 71.4038C124.517 71.3859 124.535 71.368 124.554 71.3496C124.629 71.274 124.705 71.1985 124.781 71.1231C124.837 71.0675 124.893 71.0119 124.948 70.9563C124.965 70.9396 124.982 70.9229 125 70.9057C125.081 70.8243 125.16 70.7416 125.235 70.6542C125.33 70.544 125.431 70.4415 125.534 70.3392C125.553 70.3201 125.572 70.301 125.592 70.2814C125.672 70.2007 125.753 70.1203 125.834 70.0398C125.894 69.9806 125.953 69.9213 126.013 69.862C126.04 69.8352 126.04 69.8352 126.067 69.8079C126.151 69.7241 126.232 69.6392 126.31 69.5491C126.412 69.4304 126.521 69.3205 126.632 69.2103C126.665 69.1782 126.665 69.1782 126.697 69.1455C126.788 69.0548 126.879 68.9642 126.97 68.8736C127.037 68.8071 127.103 68.7405 127.17 68.6739C127.19 68.6538 127.211 68.6336 127.232 68.6129C127.32 68.5242 127.407 68.4352 127.488 68.3398C127.595 68.2159 127.71 68.1013 127.825 67.9862C127.865 67.9464 127.905 67.9065 127.945 67.8666C128.044 67.7675 128.144 67.6686 128.243 67.5696C128.327 67.4857 128.411 67.4017 128.495 67.3176C128.534 67.2787 128.573 67.2398 128.612 67.2009C128.636 67.1768 128.66 67.1528 128.685 67.128C128.706 67.1071 128.727 67.0862 128.749 67.0647C128.802 67.0092 128.852 66.9531 128.901 66.8949C129.008 66.7723 129.122 66.6597 129.238 66.5467C129.286 66.4999 129.334 66.453 129.382 66.4061C129.395 66.3939 129.407 66.3818 129.42 66.3692C129.512 66.2794 129.603 66.1894 129.695 66.0992C129.708 66.086 129.721 66.0728 129.735 66.0593C129.79 66.0051 129.845 65.9509 129.899 65.8967C130.055 65.7434 130.21 65.5903 130.366 65.4382C130.491 65.3169 130.615 65.195 130.738 65.0722C130.803 65.0075 130.869 64.943 130.935 64.8794C131.009 64.8085 131.081 64.7361 131.153 64.6636C131.175 64.6429 131.197 64.6223 131.22 64.6009C131.332 64.486 131.332 64.486 131.363 64.333C131.35 64.252 131.331 64.1763 131.309 64.0976C131.129 63.25 131.295 62.3284 131.754 61.5964C132.032 61.171 132.378 60.8181 132.804 60.5433C132.83 60.5263 132.856 60.5093 132.883 60.4917C134.086 59.75 135.724 59.89 136.791 60.8066Z" fill="#800000"/>
<path d="M99.6457 59.4654C99.7353 59.5422 99.8223 59.6213 99.908 59.7024C99.9346 59.7265 99.9346 59.7265 99.9617 59.7511C100.559 60.3148 100.877 61.1817 100.905 61.993C100.912 62.4664 100.85 62.9226 100.665 63.3602C100.626 63.4527 100.608 63.5044 100.643 63.599C100.671 63.6426 100.671 63.6426 100.709 63.6827C100.722 63.6983 100.736 63.7139 100.75 63.73C100.765 63.7465 100.78 63.763 100.795 63.78C100.826 63.8156 100.858 63.8511 100.889 63.8867C100.913 63.9136 100.913 63.9136 100.937 63.9411C101.006 64.0199 101.075 64.0999 101.143 64.1799C101.169 64.2104 101.195 64.2409 101.221 64.2713C101.233 64.2864 101.246 64.3014 101.26 64.3169C101.325 64.3936 101.39 64.4702 101.456 64.5469C101.534 64.6387 101.613 64.7305 101.691 64.8224C101.826 64.9811 101.962 65.1394 102.099 65.2972C102.274 65.5003 102.449 65.7045 102.623 65.9088C102.771 66.0828 102.92 66.2564 103.069 66.4294C103.219 66.6022 103.367 66.7758 103.516 66.9498C103.581 67.0265 103.646 67.1031 103.712 67.1797C103.79 67.2715 103.869 67.3634 103.947 67.4552C104.082 67.614 104.218 67.7723 104.355 67.9301C104.504 68.103 104.653 68.2766 104.801 68.4505C104.866 68.5272 104.932 68.6038 104.997 68.6805C105.076 68.7723 105.154 68.8641 105.233 68.956C105.368 69.1147 105.504 69.273 105.64 69.4308C105.79 69.6037 105.938 69.7773 106.086 69.9512C106.152 70.0279 106.217 70.1046 106.283 70.1812C106.361 70.273 106.44 70.3648 106.518 70.4567C106.653 70.6154 106.789 70.7738 106.926 70.9316C107.075 71.1044 107.224 71.278 107.372 71.452C107.437 71.5287 107.503 71.6053 107.568 71.6819C107.647 71.7737 107.725 71.8656 107.803 71.9575C107.939 72.1162 108.075 72.2745 108.211 72.4323C108.36 72.6052 108.509 72.7788 108.657 72.9527C108.71 73.014 108.762 73.0753 108.814 73.1366C108.84 73.1671 108.866 73.1976 108.892 73.2281C108.961 73.3088 109.03 73.3892 109.1 73.4693C109.114 73.486 109.129 73.5028 109.144 73.52C109.172 73.5522 109.2 73.5843 109.228 73.6163C109.285 73.6822 109.324 73.731 109.352 73.8145C109.278 73.78 109.217 73.7414 109.154 73.6893C109.137 73.6751 109.12 73.6609 109.102 73.6463C109.084 73.6312 109.066 73.6162 109.047 73.6006C109.009 73.5693 108.971 73.538 108.933 73.5066C108.915 73.4915 108.896 73.4764 108.878 73.4608C108.818 73.4115 108.757 73.3628 108.696 73.3143C108.602 73.2392 108.509 73.1633 108.416 73.0872C108.263 72.9619 108.109 72.8375 107.954 72.7153C107.823 72.6133 107.695 72.5096 107.567 72.4043C107.343 72.2189 107.117 72.0343 106.888 71.8547C106.73 71.7314 106.576 71.6042 106.422 71.4763C106.307 71.3808 106.191 71.287 106.073 71.1948C105.914 71.0703 105.757 70.9419 105.602 70.8126C105.486 70.7162 105.369 70.6208 105.251 70.5267C105.157 70.4515 105.064 70.3756 104.971 70.2997C104.838 70.1906 104.704 70.0821 104.569 69.9744C104.477 69.9006 104.387 69.8261 104.296 69.7517C104.162 69.6422 104.027 69.534 103.891 69.4275C103.757 69.3232 103.628 69.2152 103.499 69.1048C103.385 69.0069 103.267 68.9136 103.148 68.8209C103.004 68.7084 102.864 68.5918 102.724 68.4751C102.606 68.3777 102.488 68.2822 102.367 68.1884C102.235 68.0847 102.106 67.9774 101.978 67.8675C101.876 67.7803 101.771 67.6966 101.666 67.6141C101.531 67.5088 101.399 67.4 101.269 67.2883C101.168 67.2015 101.064 67.1185 100.959 67.0366C100.815 66.924 100.675 66.8066 100.537 66.6865C100.432 66.596 100.326 66.5086 100.218 66.4227C99.9672 66.2217 99.7207 66.0151 99.4763 65.8064C99.3642 65.7108 99.2505 65.6173 99.1355 65.5252C99.0686 65.4684 99.0686 65.4684 99.0074 65.4041C98.9513 65.3458 98.9024 65.2983 98.8325 65.2577C98.7363 65.2591 98.658 65.3002 98.5701 65.3367C98.5035 65.3561 98.4374 65.3743 98.3701 65.391C98.3522 65.3955 98.3343 65.4 98.3158 65.4046C97.6617 65.5625 96.9697 65.5243 96.3403 65.2841C96.3146 65.2743 96.3146 65.2743 96.2884 65.2643C95.8658 65.0996 95.5069 64.8679 95.186 64.5469C95.1638 64.5247 95.1416 64.5026 95.1187 64.4798C94.4518 63.8052 94.1504 62.9571 94.1533 62.0144C94.167 61.0891 94.5612 60.2702 95.2122 59.6234C96.4071 58.4876 98.3779 58.406 99.6457 59.4654Z" fill="#800000"/>
<path d="M128.94 55.0119C129.609 55.6411 129.993 56.4924 130.024 57.4127C130.039 58.3785 129.682 59.2155 129.027 59.914C129.013 59.9295 129 59.945 128.985 59.9611C128.482 60.5052 127.684 60.8319 126.955 60.8881C126.849 60.8916 126.743 60.8918 126.637 60.8914C126.609 60.8915 126.581 60.8916 126.552 60.8917C126.421 60.8915 126.296 60.8899 126.168 60.8618C126.162 60.879 126.156 60.8962 126.15 60.9139C126.103 61.0206 126.042 61.1146 125.979 61.2123C125.95 61.2573 125.922 61.3024 125.893 61.3474C125.878 61.3712 125.863 61.395 125.847 61.4195C125.767 61.5464 125.688 61.6739 125.609 61.8014C125.575 61.8552 125.542 61.9091 125.508 61.963C125.491 61.9899 125.475 62.0167 125.457 62.0445C125.375 62.1768 125.293 62.3092 125.21 62.4415C125.177 62.4942 125.145 62.5468 125.112 62.5995C123.734 64.8111 122.357 67.0227 120.98 69.2343C120.956 69.2734 120.956 69.2734 120.931 69.3133C120.898 69.3659 120.865 69.4184 120.833 69.471C120.75 69.6042 120.667 69.7375 120.584 69.8708C120.422 70.1311 120.259 70.3912 120.096 70.6505C119.992 70.816 119.888 70.982 119.785 71.1481C119.76 71.1875 119.76 71.1875 119.735 71.2277C119.649 71.3666 119.562 71.5056 119.476 71.6446C119.459 71.6728 119.441 71.701 119.423 71.73C119.39 71.7836 119.356 71.8371 119.323 71.8907C119.229 72.0427 119.132 72.1927 119.032 72.3411C119.023 72.3237 119.015 72.3063 119.006 72.2884C119.031 72.2118 119.059 72.1377 119.089 72.0628C119.098 72.0394 119.107 72.0161 119.117 71.992C119.147 71.9141 119.178 71.8363 119.209 71.7586C119.231 71.7038 119.252 71.649 119.274 71.5943C119.33 71.4505 119.387 71.3067 119.444 71.163C119.498 71.0273 119.551 70.8914 119.605 70.7555C119.688 70.5441 119.771 70.3328 119.855 70.1216C119.959 69.8586 120.062 69.5955 120.166 69.3324C121.087 66.9919 122.012 64.6527 123.457 61.064C123.486 60.9932 123.515 60.9224 123.544 60.8516C123.628 60.644 123.714 60.4369 123.802 60.2309C123.825 60.1775 123.848 60.1241 123.871 60.0707C123.891 60.0227 123.912 59.975 123.933 59.9273C123.945 59.8993 123.957 59.8713 123.969 59.8425C123.98 59.8185 123.99 59.7946 124.001 59.77C124.021 59.6857 124.003 59.6472 123.964 59.5717C123.933 59.5268 123.933 59.5268 123.897 59.4845C123.584 59.0744 123.392 58.5782 123.308 58.0709C123.303 58.0446 123.299 58.0182 123.294 57.991C123.241 57.5249 123.262 57.0487 123.387 56.5965C123.394 56.57 123.394 56.57 123.401 56.543C123.635 55.7019 124.215 54.9965 124.96 54.5599C126.242 53.8353 127.852 54.0232 128.94 55.0119Z" fill="#800000"/>
<path d="M106.754 53.1981C106.78 53.2053 106.78 53.2053 106.807 53.2126C107.398 53.378 107.874 53.7131 108.302 54.1459C108.321 54.1656 108.341 54.1852 108.362 54.2055C108.945 54.8134 109.234 55.6955 109.224 56.5311C109.185 57.4239 108.855 58.2472 108.223 58.8851C108.18 58.9212 108.137 58.9568 108.092 58.9904C108.147 59.2008 108.209 59.409 108.273 59.6169C108.283 59.6494 108.292 59.6818 108.303 59.7152C108.33 59.8039 108.357 59.8925 108.384 59.9811C108.408 60.0569 108.431 60.1327 108.454 60.2085C108.681 60.9481 108.91 61.6874 109.138 62.4267C109.287 62.9095 109.436 63.3924 109.585 63.8753C109.614 63.9686 109.643 64.0619 109.672 64.1552C109.73 64.3433 109.788 64.5315 109.846 64.7196C109.939 65.0219 110.032 65.3242 110.125 65.6265C110.132 65.6493 110.139 65.6721 110.147 65.6955C110.182 65.8104 110.217 65.9253 110.253 66.0402C110.317 66.2474 110.381 66.4547 110.445 66.6619C110.48 66.7771 110.516 66.8923 110.551 67.0075C110.565 67.0535 110.58 67.0996 110.594 67.1457C110.601 67.1685 110.608 67.1913 110.615 67.2148C110.636 67.2839 110.658 67.353 110.679 67.4221C110.69 67.4564 110.69 67.4564 110.7 67.4913C110.715 67.5373 110.729 67.5834 110.743 67.6295C110.779 67.7447 110.814 67.86 110.85 67.9753C110.913 68.1815 110.977 68.3877 111.04 68.5939C111.075 68.7076 111.11 68.8212 111.145 68.9349C111.152 68.9575 111.159 68.98 111.167 69.0033C111.265 69.3225 111.364 69.6417 111.463 69.9609C111.518 70.141 111.574 70.3211 111.63 70.5013C111.675 70.6483 111.721 70.7953 111.766 70.9422C111.794 71.0328 111.822 71.1235 111.85 71.2142C111.863 71.256 111.876 71.2979 111.889 71.3398C111.952 71.5398 112.012 71.7383 112.053 71.9441C111.988 71.8812 111.948 71.8236 111.907 71.7425C111.894 71.718 111.882 71.6935 111.869 71.6683C111.855 71.642 111.842 71.6157 111.828 71.5887C111.8 71.5332 111.771 71.4778 111.743 71.4225C111.722 71.381 111.722 71.381 111.7 71.3387C111.644 71.2286 111.586 71.119 111.528 71.0094C111.459 70.8778 111.39 70.7461 111.322 70.614C111.197 70.3724 111.071 70.1319 110.94 69.8937C110.759 69.5643 110.59 69.2286 110.42 68.8934C110.276 68.6104 110.13 68.3287 109.982 68.0479C109.921 67.9317 109.861 67.8151 109.8 67.6986C109.787 67.6736 109.774 67.6486 109.761 67.6229C109.707 67.519 109.653 67.4152 109.599 67.3114C109.559 67.2342 109.519 67.157 109.479 67.0799C109.466 67.0545 109.453 67.0292 109.439 67.0031C109.359 66.8486 109.278 66.6943 109.197 66.5401C109.075 66.3082 108.955 66.0753 108.834 65.8424C108.736 65.6514 108.637 65.4605 108.538 65.2698C108.408 65.0203 108.279 64.7704 108.15 64.5205C108.053 64.3324 107.955 64.1444 107.857 63.9566C107.579 63.4217 107.303 62.8852 107.028 62.3485C106.937 62.1704 106.845 61.9923 106.753 61.8144C106.537 61.3956 106.324 60.9751 106.114 60.5533C106.085 60.4955 106.056 60.4377 106.027 60.38C105.986 60.2989 105.946 60.2178 105.905 60.1366C105.893 60.112 105.88 60.0874 105.868 60.062C105.857 60.0395 105.845 60.017 105.834 59.9938C105.824 59.9741 105.814 59.9543 105.804 59.934C105.783 59.8856 105.783 59.8856 105.783 59.8329C105.763 59.8341 105.742 59.8353 105.721 59.8366C104.912 59.8628 104.122 59.4896 103.537 58.9445C103.517 58.9249 103.496 58.9053 103.475 58.8851C103.455 58.8676 103.436 58.8502 103.416 58.8322C102.867 58.3174 102.511 57.4959 102.474 56.7475C102.44 55.743 102.705 54.8714 103.393 54.1256C103.412 54.1062 103.43 54.0869 103.448 54.0669C103.462 54.0514 103.476 54.0358 103.49 54.0198C103.863 53.6167 104.397 53.3479 104.917 53.1981C104.937 53.1925 104.956 53.187 104.975 53.1813C105.548 53.024 106.184 53.0378 106.754 53.1981Z" fill="#800000"/>
<path d="M118.298 50.8468C118.94 51.4023 119.352 52.2179 119.424 53.0666C119.469 54.0192 119.24 54.896 118.601 55.6221C118.561 55.6657 118.52 55.709 118.48 55.7521C118.46 55.7738 118.44 55.7955 118.419 55.8179C118.082 56.1727 117.622 56.4829 117.142 56.5947C117.142 56.619 117.142 56.619 117.143 56.6439C117.144 56.7954 117.138 56.944 117.124 57.0948C117.122 57.1172 117.12 57.1396 117.118 57.1627C117.111 57.2374 117.104 57.312 117.097 57.3867C117.093 57.4409 117.088 57.4951 117.083 57.5494C117.07 57.6981 117.056 57.8468 117.043 57.9955C117.028 58.1559 117.014 58.3164 117 58.4769C116.972 58.7911 116.943 59.1053 116.915 59.4195C116.892 59.6748 116.869 59.9301 116.846 60.1854C116.84 60.2589 116.833 60.3324 116.826 60.4059C116.825 60.4242 116.823 60.4425 116.821 60.4613C116.775 60.9751 116.729 61.4889 116.683 62.0028C116.681 62.0221 116.679 62.0415 116.678 62.0614C116.669 62.1596 116.66 62.2577 116.651 62.3558C116.648 62.385 116.648 62.385 116.646 62.4148C116.642 62.4542 116.639 62.4937 116.635 62.5331C116.58 63.1468 116.525 63.7605 116.47 64.3742C116.408 65.0638 116.346 65.7534 116.284 66.4429C116.277 66.5164 116.271 66.5899 116.264 66.6634C116.262 66.6905 116.262 66.6905 116.259 66.7182C116.235 66.9915 116.21 67.2649 116.186 67.5383C116.158 67.849 116.13 68.1597 116.102 68.4703C116.087 68.6289 116.073 68.7875 116.059 68.9461C116.046 69.0911 116.033 69.2361 116.02 69.3811C116.015 69.4337 116.01 69.4864 116.006 69.539C115.999 69.6102 115.993 69.6814 115.986 69.7526C115.985 69.7733 115.983 69.794 115.981 69.8153C115.972 69.912 115.961 69.9919 115.909 70.0749C115.836 69.3736 115.768 68.6719 115.704 67.9697C115.694 67.8613 115.684 67.7528 115.674 67.6444C115.645 67.3232 115.615 67.0021 115.586 66.6809C115.569 66.498 115.553 66.315 115.536 66.1321C115.052 60.8321 115.052 60.8321 114.791 57.6597C114.789 57.6385 114.788 57.6172 114.786 57.5952C114.725 56.8351 114.725 56.8351 114.727 56.6374C114.727 56.609 114.727 56.5806 114.727 56.5513C114.728 56.5308 114.728 56.5104 114.728 56.4893C114.698 56.4817 114.668 56.4741 114.637 56.4663C114.293 56.3501 113.996 56.0997 113.732 55.8575C113.7 55.8292 113.7 55.8292 113.668 55.8004C113.041 55.2068 112.719 54.3469 112.677 53.495C112.66 52.5351 113.012 51.6863 113.665 50.991C113.858 50.7904 114.072 50.6325 114.309 50.4864C114.325 50.4765 114.34 50.4667 114.357 50.4565C115.61 49.6937 117.202 49.9296 118.298 50.8468Z" fill="#800000"/>
</svg>
