<svg width="32" height="62" viewBox="0 0 32 62" fill="none" xmlns="http://www.w3.org/2000/svg">
<path d="M25.3814 17.817C25.4076 17.8334 25.4076 17.8334 25.4344 17.8501C25.6473 17.9836 25.8551 18.1222 26.0569 18.2722C26.0975 18.3022 26.1387 18.3313 26.1799 18.3604C26.3068 18.4502 26.429 18.5454 26.5501 18.643C26.5607 18.6515 26.5713 18.66 26.5822 18.6687C26.7989 18.8434 27.0105 19.0228 27.2142 19.2127C27.2339 19.2308 27.2539 19.2486 27.274 19.2663C27.4051 19.3822 27.5279 19.5062 27.6512 19.6303C27.689 19.6683 27.7268 19.7061 27.7647 19.744C27.789 19.7685 27.8134 19.793 27.8378 19.8175C27.8489 19.8286 27.8601 19.8398 27.8715 19.8512C27.9357 19.916 27.997 19.9825 28.0564 20.0517C28.0879 20.0883 28.1204 20.124 28.1529 20.1597C28.2171 20.231 28.278 20.3045 28.3382 20.3792C28.3722 20.421 28.4069 20.462 28.442 20.5029C28.5418 20.6194 28.634 20.7406 28.7247 20.8643C28.7491 20.8972 28.7737 20.9298 28.7985 20.9623C28.9183 21.1202 29.0309 21.2821 29.1402 21.4475C29.1671 21.4883 29.1943 21.529 29.2214 21.5696C29.5021 21.9918 29.7502 22.433 29.9797 22.885C30.0041 22.933 30.0288 22.9809 30.0535 23.0287C30.6482 24.1898 31.0475 25.4708 31.6034 29.0008C31.6042 29.0143 31.605 29.0277 31.6059 29.0416C31.7113 30.7532 31.573 32.472 30.9285 35.7243C30.9247 35.7402 30.9209 35.756 30.9169 35.7723C30.6931 36.6991 30.4181 37.6129 30.1476 38.5268C30.0709 38.7858 29.9946 39.045 29.9189 39.3043C29.9123 39.3267 29.9058 39.3491 29.8992 39.3716C29.7965 39.7228 29.6977 40.0749 29.6041 40.4287C29.542 40.6616 29.4755 40.8929 29.3596 41.1056C29.3534 41.1172 29.3472 41.1289 29.3407 41.1408C29.2455 41.3138 29.121 41.462 28.9862 41.6054C28.9702 41.6231 28.9702 41.6231 28.9538 41.6411C28.6955 41.9153 28.3552 42.1124 28.0275 42.2909C27.9453 42.3358 27.8634 42.3813 27.7815 42.4266C27.7505 42.4438 27.7196 42.461 27.6886 42.4781C27.39 42.6435 27.0926 42.8106 26.7984 42.9839C26.7306 43.0237 26.6627 43.0632 26.5945 43.1023C26.3486 43.2437 26.1057 43.3893 25.8639 43.5378C25.8127 43.5692 25.7614 43.6005 25.7101 43.6317C25.3767 43.8344 25.0467 44.0426 24.7181 44.2531C24.674 44.2813 24.6298 44.3095 24.5856 44.3376C24.3732 44.4725 24.1624 44.6098 23.9524 44.7483C23.9016 44.7818 23.8508 44.8153 23.7999 44.8487C23.3033 45.1753 23.3033 45.1753 22.8144 45.5134C22.7537 45.5561 22.6918 45.597 22.6299 45.638C22.2144 45.9155 21.8079 46.2073 21.4004 46.4964C21.3547 46.5289 21.3089 46.5613 21.2631 46.5936C21.1292 46.6881 20.9961 46.7835 20.8635 46.8798C20.7895 46.9336 20.7153 46.9871 20.6409 47.0403C20.516 47.1297 20.3918 47.2199 20.2675 47.3101C20.2302 47.3371 20.193 47.3641 20.1557 47.391C20.0156 47.4922 19.8763 47.5943 19.7375 47.6972C19.6485 47.7632 19.559 47.8284 19.4692 47.8932C19.3656 47.9679 19.2631 48.0439 19.1612 48.121C19.077 48.1846 18.9924 48.2476 18.9075 48.3103C18.8944 48.3199 18.8814 48.3296 18.8679 48.3395C18.8146 48.3789 18.7613 48.4182 18.7079 48.4576C18.5619 48.5653 18.4162 48.6733 18.2715 48.7827C18.1883 48.8454 18.1046 48.9073 18.0207 48.969C17.8935 49.0627 17.7678 49.1584 17.6425 49.2546C17.5481 49.327 17.453 49.3983 17.3572 49.4687C17.2144 49.5737 17.0736 49.6811 16.9331 49.789C16.8734 49.8348 16.8135 49.8801 16.7533 49.9251C16.6211 50.0243 16.4913 50.1266 16.3613 50.2286C16.3505 50.2371 16.3396 50.2456 16.3285 50.2544C16.2176 50.3413 16.1074 50.4289 15.9988 50.5186C15.9388 50.5681 15.8785 50.6173 15.8181 50.6664C15.7844 50.6939 15.7507 50.7214 15.717 50.7489C15.6903 50.7706 15.6636 50.7924 15.6369 50.8142C15.5297 50.9018 15.424 50.9912 15.3186 51.081C15.2919 51.1038 15.2651 51.1265 15.2384 51.1492C15.1269 51.2436 15.0159 51.3385 14.9053 51.4339C14.8664 51.4675 14.8273 51.501 14.7882 51.5343C14.6777 51.6286 14.5695 51.7247 14.463 51.8235C14.416 51.8669 14.3682 51.9091 14.32 51.9511C14.2678 51.9969 14.2164 52.0436 14.1649 52.0902C14.1242 52.1271 14.0834 52.1639 14.0425 52.2007C13.948 52.2861 13.8542 52.3724 13.7606 52.4588C13.7523 52.4665 13.7439 52.4743 13.7352 52.4822C13.4479 52.7448 13.4479 52.7448 13.1712 53.0184C13.1401 53.0487 13.1084 53.0768 13.0756 53.1051C13.003 53.1687 12.9345 53.236 12.8664 53.3045C12.8534 53.3175 12.8404 53.3306 12.8271 53.344C12.7845 53.3866 12.7419 53.4294 12.6994 53.4721C12.6696 53.502 12.6398 53.5319 12.61 53.5618C12.5477 53.6243 12.4854 53.6868 12.4232 53.7494C12.3515 53.8214 12.2798 53.8933 12.2081 53.9653C12.1386 54.0348 12.0693 54.1045 11.9999 54.1741C11.9706 54.2036 11.9412 54.233 11.9119 54.2625C11.8707 54.3037 11.8297 54.345 11.7886 54.3862C11.7766 54.3983 11.7646 54.4103 11.7523 54.4226C11.6869 54.4885 11.6244 54.5558 11.5643 54.6264C11.5224 54.6744 11.477 54.7187 11.4315 54.7633C11.3633 54.8309 11.2978 54.8993 11.2357 54.9727C11.1972 55.0166 11.1556 55.0572 11.1136 55.0978C11.0824 55.1301 11.0529 55.1631 11.0235 55.1971C10.9643 55.2654 10.903 55.3315 10.841 55.3972C10.7607 55.4828 10.6812 55.5688 10.6033 55.6565C10.5608 55.704 10.5178 55.7509 10.4748 55.7978C10.4158 55.8622 10.3577 55.9272 10.3007 55.9932C10.2647 56.0343 10.2278 56.0745 10.1908 56.1148C10.137 56.174 10.0854 56.234 10.0355 56.2965C9.96845 56.38 9.89663 56.4579 9.82345 56.5359C9.75621 56.6079 9.69355 56.6827 9.63204 56.7598C9.59408 56.8061 9.55439 56.8502 9.51393 56.8943C9.44782 56.9665 9.38564 57.0408 9.32432 57.1171C9.27608 57.1759 9.22641 57.2334 9.1765 57.2908C9.1025 57.376 9.03023 57.4622 8.95936 57.55C8.91456 57.6047 8.86867 57.6584 8.82261 57.7121C8.73866 57.8099 8.65672 57.9091 8.5757 58.0094C8.55103 58.0397 8.52634 58.07 8.50163 58.1003C8.48317 58.1229 8.48317 58.1229 8.46434 58.146C8.44052 58.1752 8.41669 58.2045 8.39284 58.2337C8.30206 58.3449 8.21167 58.4564 8.12138 58.5681C8.08449 58.6137 8.04754 58.6592 8.01053 58.7047C7.90314 58.8369 7.79709 58.97 7.6925 59.1044C7.65505 59.1525 7.61745 59.2004 7.57987 59.2484C7.53416 59.3067 7.48847 59.3651 7.44292 59.4236C7.3982 59.481 7.3533 59.5382 7.30828 59.5953C7.28893 59.6199 7.28893 59.6199 7.26918 59.645C7.19944 59.7323 7.1266 59.8128 7.04684 59.8909C7.0044 59.9333 6.96531 59.9779 6.92635 60.0236C6.8939 60.0612 6.86038 60.0977 6.82682 60.1343C6.74407 60.2264 6.6685 60.3234 6.593 60.4215C6.56617 60.4561 6.539 60.4905 6.51176 60.5248C6.33515 60.7483 6.17655 60.9811 6.03301 61.2273C6.02473 61.2393 6.01646 61.2514 6.00793 61.2638C5.99707 61.2638 5.9862 61.2638 5.97501 61.2638C6.02834 60.9537 6.0873 60.6454 6.15299 60.3377C6.15977 60.3058 6.15977 60.3058 6.16669 60.2733C6.46658 58.8672 6.83646 57.4785 7.46052 55.5515C7.47321 55.514 7.48583 55.4764 7.49844 55.4388C7.63112 55.043 7.77034 54.6501 7.9173 54.2594C7.9226 54.2454 7.92789 54.2313 7.93335 54.2168C8.17952 53.5633 8.44164 52.9158 8.72384 52.2771C8.72912 52.2651 8.7344 52.2532 8.73983 52.2408C8.93042 51.809 9.1285 51.381 9.33287 50.9555C9.3393 50.9421 9.34573 50.9287 9.35235 50.9149C9.50581 50.5956 9.66171 50.2774 9.81947 49.9602C9.82611 49.9468 9.83276 49.9334 9.8396 49.9196C9.91783 49.7622 9.99767 49.6058 10.0796 49.4503C10.1223 49.3693 10.1645 49.2882 10.2062 49.2067C10.2113 49.1965 10.2165 49.1864 10.2218 49.176C10.2323 49.1556 10.2427 49.1352 10.2531 49.1149C10.3408 48.9433 10.4298 48.7726 10.5227 48.6037C10.5927 48.476 10.6604 48.3472 10.728 48.2182C10.8267 48.03 10.9268 47.843 11.0322 47.6585C11.1017 47.5362 11.1682 47.4124 11.234 47.2881C11.3345 47.0985 11.4385 46.9112 11.5445 46.7246C11.5822 46.6578 11.6194 46.5907 11.6567 46.5236C11.7507 46.3542 11.8468 46.186 11.9447 46.0188C12.0169 45.895 12.0867 45.77 12.1558 45.6444C12.2614 45.4525 12.3704 45.2627 12.4811 45.0737C12.5292 44.9915 12.577 44.9091 12.6249 44.8267C12.6442 44.7936 12.6634 44.7604 12.6827 44.7273C12.7205 44.6623 12.7582 44.5973 12.796 44.5322C12.8541 44.4321 12.9123 44.3321 12.9705 44.232C12.976 44.2226 12.9814 44.2133 12.987 44.2037C13.124 43.9682 13.2616 43.7331 13.4018 43.4995C13.4789 43.3708 13.5553 43.2418 13.6316 43.1126C13.7479 42.9156 13.8653 42.7193 13.9841 42.5238C14.074 42.3756 14.1623 42.2265 14.2503 42.0772C14.3443 41.9178 14.4391 41.7591 14.5368 41.602C14.61 41.4843 14.6818 41.3658 14.7534 41.2471C14.8562 41.0767 14.9599 40.9067 15.0641 40.7371C15.1352 40.6214 15.2057 40.5053 15.276 40.3891C15.3643 40.243 15.4542 40.098 15.5447 39.9532C15.6159 39.8392 15.6859 39.7246 15.7554 39.6096C15.8317 39.4832 15.9092 39.3578 15.9881 39.2332C16.0577 39.1232 16.1257 39.0123 16.1936 38.9013C16.3097 38.7116 16.4269 38.5226 16.5447 38.3339C16.5961 38.2515 16.6474 38.1691 16.6988 38.0867C16.7193 38.0536 16.7399 38.0206 16.7605 37.9875C16.7707 37.9712 16.7808 37.9548 16.7913 37.938C17.8715 36.2034 17.8715 36.2034 17.9024 36.1539C17.923 36.1208 17.9436 36.0877 17.9642 36.0547C18.0153 35.9725 18.0666 35.8903 18.1179 35.8081C18.2576 35.5841 18.3961 35.3594 18.5339 35.1342C18.5666 35.0807 18.5995 35.0272 18.6323 34.9737C18.6984 34.8661 18.7644 34.7584 18.8303 34.6506C18.836 34.6412 18.8418 34.6319 18.8476 34.6223C19.0119 34.3535 19.1727 34.0831 19.3283 33.8091C19.3558 33.7607 19.3836 33.7123 19.4113 33.664C19.5444 33.4314 19.6683 33.1944 19.7895 32.9554C19.8149 32.9054 19.8406 32.8555 19.8663 32.8057C20.4899 31.5877 21.0198 29.9821 20.7839 28.2471C20.7051 28.0067 20.5756 27.8096 20.3499 27.6871C20.1626 27.6037 19.9671 27.5627 19.7686 27.6297C19.4998 27.7484 19.3427 27.9742 19.1694 28.2015C19.0523 28.3549 18.9327 28.5055 18.8076 28.6524C18.7674 28.6998 18.7283 28.748 18.6894 28.7964C18.6256 28.8751 18.5585 28.9502 18.4901 29.0249C18.4582 29.0598 18.427 29.0951 18.3962 29.1309C18.2246 29.3282 18.0418 29.514 17.8571 29.6989C17.8137 29.7424 17.7705 29.7859 17.7272 29.8294C17.6993 29.8574 17.6713 29.8854 17.6434 29.9134C17.6243 29.9326 17.6243 29.9326 17.6048 29.9523C17.5276 30.0294 17.448 30.1025 17.3654 30.1737C17.3389 30.1978 17.3125 30.2218 17.2862 30.246C17.215 30.3105 17.1417 30.3717 17.0672 30.4321C17.0267 30.4653 16.9871 30.4993 16.9476 30.5336C16.8099 30.6528 16.6645 30.7611 16.5183 30.8695C16.479 30.8987 16.4399 30.9283 16.4009 30.958C15.9608 31.2909 15.4866 31.5778 15.0008 31.838C14.9674 31.856 14.9341 31.8743 14.901 31.8928C13.7347 32.5371 12.403 32.8939 10.0736 33.1968C10.0527 33.1986 10.0317 33.2003 10.0102 33.2021C9.31057 33.2573 8.59434 33.2594 7.89666 33.1799C7.38394 33.1217 6.86456 33.0867 6.35359 33.1803C6.33874 33.1829 6.32388 33.1855 6.30858 33.1881C5.37859 33.353 4.54358 33.8615 3.8577 34.4988C3.82396 34.5301 3.78974 34.5606 3.75496 34.5907C3.69552 34.6425 3.63778 34.696 3.58007 34.7497C3.51249 34.8126 3.44442 34.8746 3.3747 34.9351C3.33292 34.9719 3.29191 35.0095 3.25087 35.047C3.18886 35.1038 3.12631 35.1598 3.06293 35.2149C3.02182 35.2513 2.98156 35.2886 2.94121 35.3258C2.88228 35.3798 2.82242 35.4316 2.76015 35.4817C2.66555 35.5583 2.57749 35.641 2.48888 35.7244C2.4118 35.7969 2.332 35.8659 2.25162 35.9347C2.23184 35.9517 2.21206 35.9686 2.19228 35.9856C2.17731 35.9984 2.17731 35.9984 2.16204 36.0115C2.10046 36.0644 2.04004 36.1184 1.98035 36.1735C1.92282 36.2265 1.86422 36.2771 1.80341 36.3263C1.72874 36.3867 1.65821 36.4504 1.58804 36.5159C1.53519 36.565 1.48098 36.6114 1.42483 36.6567C1.35594 36.7123 1.29075 36.7706 1.22628 36.8312C1.14791 36.9048 1.06719 36.9739 0.983426 37.0413C0.933893 37.0826 0.88655 37.1258 0.839464 37.1698C0.763952 37.2403 0.685819 37.3062 0.605422 37.3712C0.555689 37.4127 0.508215 37.456 0.460882 37.5002C0.38446 37.5716 0.305566 37.6386 0.22414 37.7043C0.168298 37.7503 0.115132 37.7989 0.0621754 37.8482C0.0329202 37.8719 0.0329202 37.8719 0 37.8719C0.147109 37.0832 0.44974 36.331 0.790084 35.6087C0.798232 35.5912 0.806379 35.5738 0.814774 35.5558C0.922526 35.3249 1.03706 35.0993 1.16073 34.8766C1.18489 34.8327 1.20861 34.7887 1.23219 34.7445C1.35358 34.5176 1.48293 34.2959 1.61486 34.075C1.64326 34.0274 1.67154 33.9798 1.69976 33.9321C1.8026 33.7587 1.90857 33.5875 2.01658 33.4172C2.04074 33.379 2.06474 33.3408 2.08869 33.3025C2.29709 32.9693 2.51365 32.6415 2.72929 32.313C2.74473 32.2895 2.74473 32.2895 2.76048 32.2655C2.85772 32.1174 2.95502 31.9694 3.05328 31.822C3.54574 31.0823 3.91655 30.2944 4.18086 29.4469C4.18625 29.4297 4.19163 29.4124 4.19718 29.3947C4.25759 29.1979 4.29914 28.9971 4.33929 28.7954C4.34277 28.7782 4.34277 28.7782 4.34631 28.7607C4.42785 28.3542 4.46757 27.9435 4.49001 27.53C4.49623 27.4166 4.50318 27.3032 4.51019 27.1899C4.51088 27.1787 4.51156 27.1676 4.51227 27.1561C4.59317 25.8476 4.85927 24.546 6.50173 21.3027C6.51072 21.2901 6.51972 21.2776 6.52898 21.2647C6.65845 21.0843 6.79324 20.9098 6.93593 20.7397C6.96105 20.7098 6.98603 20.6798 7.01097 20.6497C7.10409 20.5378 7.20049 20.4295 7.29942 20.3227C7.318 20.3023 7.33633 20.2817 7.35452 20.261C7.46106 20.14 7.57388 20.0259 7.6878 19.9119C7.72086 19.8788 7.75384 19.8456 7.78681 19.8124C7.88789 19.7109 7.98911 19.6112 8.09836 19.5185C8.12759 19.4918 8.15675 19.4649 8.18581 19.438C8.26624 19.3644 8.34914 19.295 8.43382 19.2264C8.46361 19.2021 8.49308 19.1774 8.52253 19.1526C8.68757 19.0142 8.85687 18.8827 9.03006 18.7547C9.06585 18.7283 9.10151 18.7016 9.13715 18.675C9.75965 18.2132 10.4274 17.8171 11.1106 17.4536C11.1407 17.4374 11.1708 17.4213 11.201 17.4051C11.4093 17.2939 11.6208 17.1899 11.8348 17.0901C11.8541 17.0811 11.8734 17.0721 11.8933 17.0628C13.0724 16.5143 14.3116 16.1425 17.102 15.7851C17.1216 15.7839 17.1412 15.7826 17.1613 15.7814C18.6089 15.697 20.0951 15.8436 25.3814 17.817Z" fill="#800000"/>
<path d="M31.2419 6.77947C31.2584 6.79335 31.2749 6.80724 31.2919 6.82154C31.7025 7.17626 31.9462 7.69505 31.9945 8.23352C32.0314 8.76548 31.8913 9.3342 31.539 9.74533C31.4984 9.79073 31.4565 9.83449 31.4136 9.8777C31.3915 9.90022 31.3699 9.92333 31.3484 9.94647C31.0047 10.31 30.4897 10.5175 29.9949 10.5341C29.5974 10.5419 29.209 10.4877 28.8614 10.2795C28.8229 10.2614 28.8229 10.2614 28.784 10.2736C28.7236 10.3073 28.6683 10.3463 28.6124 10.387C28.5873 10.405 28.5621 10.4231 28.537 10.4411C28.5242 10.4503 28.5114 10.4595 28.4982 10.469C28.4509 10.5031 28.4033 10.5367 28.3556 10.5703C28.2478 10.6463 28.1408 10.7233 28.0342 10.801C27.9322 10.8754 27.829 10.9477 27.7246 11.0188C27.6213 11.0892 27.5196 11.1613 27.4193 11.236C27.3211 11.3089 27.2208 11.3789 27.1206 11.449C27.0283 11.5136 26.9369 11.5791 26.846 11.6456C26.745 11.7193 26.6428 11.7909 26.5395 11.8613C26.4361 11.9317 26.3345 12.0038 26.2342 12.0785C26.1359 12.1514 26.0357 12.2214 25.9354 12.2915C25.8432 12.3561 25.7518 12.4217 25.6609 12.4881C25.5599 12.5618 25.4577 12.6334 25.3543 12.7038C25.251 12.7742 25.1494 12.8463 25.0491 12.921C24.9508 12.9939 24.8506 13.0639 24.7503 13.134C24.6581 13.1986 24.5667 13.2642 24.4758 13.3306C24.3748 13.4043 24.2726 13.4759 24.1692 13.5463C24.0659 13.6167 23.9642 13.6888 23.8639 13.7635C23.7657 13.8364 23.6655 13.9065 23.5652 13.9765C23.473 14.0411 23.3816 14.1067 23.2907 14.1731C23.1896 14.2468 23.0874 14.3184 22.9841 14.3889C22.8808 14.4593 22.7791 14.5313 22.6788 14.606C22.5807 14.6788 22.4808 14.7487 22.3806 14.8186C22.3099 14.868 22.2396 14.9179 22.1701 14.969C22.1567 14.9789 22.1432 14.9888 22.1293 14.999C22.1038 15.0179 22.0783 15.0368 22.0528 15.0559C22.0414 15.0643 22.0299 15.0728 22.0181 15.0815C22.0081 15.0889 21.9981 15.0963 21.9879 15.104C21.9563 15.1232 21.9287 15.1314 21.8926 15.1384C21.9511 15.0683 22.011 15.0023 22.0761 14.9383C22.1034 14.9104 22.1284 14.8818 22.1534 14.8519C22.2567 14.7326 22.3715 14.6238 22.4834 14.5128C22.6152 14.3838 22.6152 14.3838 22.7392 14.2474C22.8438 14.1238 22.9637 14.0131 23.0783 13.8992C23.1111 13.8666 23.1438 13.834 23.1765 13.8014C23.1863 13.7916 23.1962 13.7819 23.2063 13.7718C23.2558 13.7224 23.3032 13.6721 23.3488 13.6191C23.4062 13.5525 23.467 13.4904 23.5293 13.4286C23.5406 13.4174 23.5518 13.4062 23.5634 13.3946C23.611 13.3472 23.6586 13.2998 23.7062 13.2525C23.7413 13.2176 23.7762 13.1827 23.8112 13.1478C23.8218 13.1373 23.8323 13.1269 23.8432 13.1161C23.8944 13.065 23.9436 13.0131 23.9908 12.9583C24.0503 12.8891 24.1137 12.8248 24.1785 12.7606C24.1905 12.7487 24.2024 12.7367 24.2148 12.7244C24.2655 12.6738 24.3163 12.6233 24.367 12.5728C24.4043 12.5356 24.4416 12.4984 24.4789 12.4612C24.4958 12.4444 24.4958 12.4444 24.5131 12.4273C24.5658 12.3747 24.6167 12.3215 24.6652 12.2649C24.7292 12.1904 24.7981 12.1215 24.8677 12.0523C24.8879 12.0322 24.8879 12.0322 24.9085 12.0116C24.9655 11.9547 25.0225 11.8979 25.0796 11.8411C25.1215 11.7994 25.1633 11.7576 25.2052 11.7158C25.2179 11.7031 25.2306 11.6905 25.2437 11.6775C25.2994 11.6219 25.3537 11.566 25.4048 11.5061C25.4715 11.4284 25.5438 11.3565 25.6163 11.2843C25.6415 11.2593 25.6665 11.2343 25.6916 11.2092C25.7537 11.147 25.816 11.085 25.8782 11.0229C25.931 10.9702 25.9838 10.9175 26.0365 10.8648C26.061 10.8403 26.0855 10.816 26.11 10.7916C26.1251 10.7765 26.1402 10.7613 26.1558 10.7458C26.1689 10.7327 26.1821 10.7196 26.1956 10.7061C26.2288 10.6713 26.2602 10.6361 26.2914 10.5995C26.358 10.5226 26.43 10.452 26.5029 10.3811C26.5329 10.3517 26.563 10.3223 26.593 10.2929C26.6008 10.2852 26.6087 10.2776 26.6167 10.2697C26.6744 10.2134 26.7318 10.1569 26.7891 10.1003C26.7975 10.092 26.8058 10.0837 26.8145 10.0752C26.8489 10.0412 26.8833 10.0072 26.9177 9.97323C27.015 9.87702 27.1125 9.78101 27.2106 9.68558C27.2888 9.60947 27.3666 9.53295 27.4439 9.45593C27.4848 9.41529 27.5258 9.37487 27.5673 9.33493C27.6136 9.29043 27.6589 9.24505 27.7042 9.19956C27.718 9.18657 27.7318 9.17359 27.746 9.16022C27.8166 9.08808 27.8166 9.08808 27.8359 8.99209C27.8278 8.9413 27.816 8.89379 27.8017 8.84443C27.6893 8.31257 27.7931 7.73436 28.0816 7.27506C28.2558 7.00815 28.4726 6.78671 28.74 6.61427C28.7564 6.6036 28.7728 6.59293 28.7897 6.58194C29.5444 6.11651 30.5723 6.20441 31.2419 6.77947Z" fill="#800000"/>
<path d="M7.93541 5.9392C7.99165 5.9874 8.04619 6.03698 8.10001 6.08787C8.11669 6.10302 8.11669 6.10302 8.1337 6.11846C8.50859 6.47214 8.70818 7.01606 8.7255 7.52509C8.72983 7.82215 8.69088 8.10835 8.57477 8.38291C8.55074 8.44096 8.53943 8.47342 8.56089 8.53279C8.57899 8.56011 8.57899 8.56011 8.60237 8.58532C8.61095 8.59509 8.61953 8.60487 8.62838 8.61494C8.63768 8.62531 8.64698 8.63568 8.65657 8.64636C8.67621 8.66866 8.69584 8.69097 8.71547 8.71328C8.73041 8.73017 8.73041 8.73017 8.74565 8.74739C8.78921 8.79687 8.83196 8.84703 8.87466 8.89726C8.89097 8.91638 8.90728 8.9355 8.92359 8.95462C8.93164 8.96406 8.93968 8.9735 8.94797 8.98322C8.989 9.03134 9.03008 9.07942 9.07116 9.1275C9.12037 9.18511 9.16957 9.24272 9.21872 9.30038C9.30364 9.39996 9.38882 9.49931 9.47443 9.59831C9.58462 9.72574 9.69401 9.85384 9.80329 9.98206C9.89635 10.0912 9.98963 10.2002 10.0835 10.3087C10.1773 10.4171 10.2705 10.5261 10.3635 10.6352C10.4046 10.6833 10.4456 10.7314 10.4867 10.7795C10.5359 10.8371 10.5851 10.8947 10.6343 10.9523C10.7192 11.0519 10.8044 11.1513 10.89 11.2503C10.9838 11.3588 11.077 11.4677 11.1701 11.5768C11.2111 11.6249 11.2522 11.673 11.2933 11.7211C11.3425 11.7787 11.3917 11.8363 11.4408 11.894C11.5258 11.9936 11.6109 12.0929 11.6965 12.1919C11.7903 12.3004 11.8836 12.4093 11.9766 12.5184C12.0177 12.5666 12.0587 12.6146 12.0998 12.6627C12.149 12.7203 12.1982 12.7779 12.2474 12.8356C12.3323 12.9352 12.4175 13.0345 12.5031 13.1335C12.5969 13.242 12.6901 13.3509 12.7832 13.4601C12.8242 13.5082 12.8653 13.5563 12.9064 13.6043C12.9556 13.6619 13.0048 13.7196 13.0539 13.7772C13.1388 13.8768 13.224 13.9762 13.3096 14.0751C13.4034 14.1836 13.4967 14.2925 13.5897 14.4017C13.6225 14.4402 13.6554 14.4786 13.6882 14.5171C13.7046 14.5362 13.7209 14.5553 13.7372 14.5745C13.7804 14.6251 13.8237 14.6756 13.8674 14.7258C13.8765 14.7363 13.8856 14.7468 13.895 14.7577C13.9124 14.7778 13.93 14.798 13.9476 14.8181C13.9832 14.8594 14.0082 14.89 14.0256 14.9424C13.9792 14.9207 13.941 14.8965 13.9015 14.8638C13.8907 14.8549 13.8799 14.846 13.8688 14.8369C13.8574 14.8274 13.846 14.818 13.8343 14.8082C13.8104 14.7885 13.7865 14.7689 13.7627 14.7492C13.7512 14.7397 13.7397 14.7303 13.7279 14.7205C13.6902 14.6895 13.6522 14.659 13.6141 14.6286C13.5552 14.5814 13.4967 14.5338 13.4383 14.4861C13.3422 14.4074 13.2458 14.3294 13.1481 14.2527C13.0665 14.1887 12.9858 14.1236 12.9058 14.0576C12.7648 13.9412 12.6234 13.8254 12.4794 13.7127C12.3806 13.6354 12.2839 13.5556 12.1873 13.4753C12.1151 13.4154 12.0421 13.3565 11.9681 13.2987C11.8681 13.2206 11.7702 13.14 11.6725 13.0589C11.5996 12.9984 11.5262 12.9386 11.4521 12.8795C11.3934 12.8323 11.3351 12.7847 11.2768 12.7371C11.193 12.6686 11.109 12.6005 11.0245 12.5329C10.9671 12.4867 10.91 12.4399 10.853 12.3932C10.769 12.3245 10.6844 12.2567 10.5989 12.1898C10.5151 12.1244 10.4338 12.0566 10.3532 11.9874C10.2813 11.9259 10.2075 11.8674 10.133 11.8092C10.0428 11.7386 9.95472 11.6655 9.86661 11.5922C9.79297 11.5311 9.71857 11.4712 9.64315 11.4124C9.55978 11.3473 9.47881 11.28 9.39861 11.211C9.33463 11.1563 9.26921 11.1038 9.20284 11.052C9.11808 10.9859 9.03568 10.9177 8.95416 10.8476C8.89056 10.7932 8.82548 10.741 8.75944 10.6896C8.66876 10.619 8.58122 10.5454 8.49444 10.47C8.42897 10.4132 8.36231 10.3583 8.29445 10.3045C8.1371 10.1783 7.98245 10.0488 7.82909 9.91779C7.75875 9.8578 7.68744 9.79913 7.61528 9.74137C7.57329 9.70569 7.57329 9.70569 7.5349 9.66536C7.4997 9.62878 7.46905 9.59897 7.42515 9.57353C7.36483 9.57438 7.31567 9.60015 7.26055 9.62309C7.21874 9.63524 7.17724 9.64666 7.13504 9.65716C7.1238 9.65997 7.11257 9.66278 7.10099 9.66568C6.69053 9.76474 6.25637 9.74079 5.86144 9.59005C5.84532 9.58392 5.84532 9.58392 5.82888 9.57767C5.56372 9.4743 5.33853 9.32894 5.1372 9.1275C5.12326 9.11362 5.10932 9.09973 5.09495 9.08543C4.67655 8.66213 4.48744 8.13002 4.48927 7.53855C4.49782 6.95794 4.7452 6.44418 5.15366 6.03832C5.90335 5.32567 7.13992 5.27446 7.93541 5.9392Z" fill="#800000"/>
<path d="M26.3162 3.14486C26.7355 3.53965 26.9766 4.07377 26.9962 4.65125C27.0057 5.25721 26.7814 5.78236 26.3708 6.22062C26.3621 6.23037 26.3534 6.24012 26.3445 6.25017C26.0285 6.59158 25.528 6.79658 25.0704 6.83185C25.0039 6.83406 24.9374 6.83416 24.8708 6.83391C24.8534 6.83397 24.836 6.83404 24.818 6.8341C24.7358 6.834 24.6574 6.833 24.5766 6.81533C24.5729 6.82612 24.5693 6.83692 24.5655 6.84804C24.5362 6.91496 24.4977 6.97393 24.4583 7.03524C24.4403 7.0635 24.4224 7.09177 24.4044 7.12004C24.3949 7.13497 24.3854 7.1499 24.3756 7.16529C24.3252 7.24486 24.2755 7.32487 24.2258 7.40487C24.2048 7.43867 24.1838 7.47246 24.1627 7.50625C24.1522 7.52312 24.1417 7.54 24.1309 7.55738C24.0793 7.64044 24.0275 7.72347 23.9758 7.80651C23.9552 7.83955 23.9347 7.87259 23.9141 7.90563C23.0499 9.29328 22.1858 10.6809 21.3216 12.0686C21.3063 12.0931 21.3063 12.0931 21.2908 12.1182C21.2702 12.1511 21.2497 12.1841 21.2291 12.2171C21.1771 12.3007 21.125 12.3843 21.073 12.468C20.9714 12.6313 20.8695 12.7945 20.7669 12.9572C20.7015 13.061 20.6365 13.1652 20.5717 13.2694C20.5563 13.2941 20.5563 13.2941 20.5406 13.3193C20.4863 13.4065 20.4321 13.4937 20.378 13.5809C20.367 13.5986 20.356 13.6163 20.3447 13.6345C20.3238 13.6681 20.303 13.7017 20.2821 13.7353C20.2229 13.8307 20.1622 13.9248 20.0995 14.0179C20.094 14.007 20.0886 13.9961 20.083 13.9849C20.0991 13.9368 20.1164 13.8903 20.1352 13.8433C20.141 13.8286 20.1467 13.814 20.1526 13.7989C20.1718 13.75 20.1912 13.7012 20.2106 13.6524C20.2241 13.6181 20.2376 13.5837 20.2511 13.5493C20.2867 13.4591 20.3223 13.3689 20.358 13.2788C20.3917 13.1936 20.4253 13.1083 20.4588 13.0231C20.511 12.8904 20.5633 12.7579 20.6157 12.6253C20.6809 12.4603 20.7459 12.2952 20.8109 12.1301C21.3891 10.6616 21.9694 9.19389 22.8761 6.94221C22.8942 6.8978 22.9123 6.85338 22.9303 6.80895C22.9834 6.67868 23.0371 6.54876 23.0926 6.4195C23.1068 6.38599 23.1211 6.35247 23.1353 6.31896C23.1482 6.28887 23.1614 6.25891 23.1747 6.22897C23.1821 6.21141 23.1896 6.19386 23.1973 6.17577C23.2039 6.16076 23.2104 6.14575 23.2172 6.13028C23.2294 6.07743 23.2186 6.05327 23.194 6.00586C23.1746 5.97773 23.1746 5.97773 23.1518 5.95114C22.9557 5.69382 22.8348 5.38248 22.7825 5.06424C22.7795 5.04769 22.7765 5.03115 22.7734 5.0141C22.7404 4.72164 22.7532 4.42282 22.8318 4.13914C22.8363 4.1225 22.8363 4.1225 22.8409 4.10553C22.9877 3.57779 23.3512 3.13519 23.8191 2.86125C24.623 2.40662 25.6335 2.52451 26.3162 3.14486Z" fill="#800000"/>
<path d="M12.3944 2.0079C12.411 2.01241 12.411 2.01241 12.4278 2.01701C12.7984 2.12077 13.0971 2.33104 13.3656 2.60261C13.378 2.61494 13.3904 2.62727 13.4033 2.63998C13.7693 3.02143 13.9509 3.57492 13.9441 4.09919C13.9198 4.65936 13.7128 5.1759 13.3162 5.57616C13.2893 5.59882 13.262 5.62114 13.2339 5.64224C13.2688 5.77423 13.3072 5.90489 13.3474 6.03535C13.3536 6.05571 13.3599 6.07606 13.3663 6.09704C13.3834 6.15266 13.4004 6.20826 13.4176 6.26387C13.4322 6.31141 13.4468 6.35896 13.4614 6.4065C13.6039 6.87061 13.7472 7.33448 13.8905 7.79833C13.9841 8.10127 14.0775 8.40426 14.171 8.70725C14.189 8.76579 14.2071 8.82432 14.2251 8.88285C14.2615 9.00089 14.2979 9.11894 14.3343 9.23699C14.3928 9.42667 14.4513 9.61636 14.5098 9.80604C14.5142 9.82032 14.5186 9.83461 14.5232 9.84933C14.5454 9.92142 14.5676 9.99351 14.5899 10.0656C14.63 10.1956 14.6701 10.3256 14.7102 10.4556C14.7324 10.5279 14.7547 10.6002 14.777 10.6725C14.7859 10.7014 14.7949 10.7303 14.8038 10.7592C14.8082 10.7735 14.8126 10.7878 14.8171 10.8026C14.8305 10.8459 14.8439 10.8893 14.8573 10.9327C14.8639 10.9541 14.8639 10.9541 14.8706 10.976C14.8796 11.0049 14.8885 11.0338 14.8974 11.0627C14.9197 11.1351 14.942 11.2074 14.9643 11.2798C15.0042 11.4091 15.0441 11.5385 15.084 11.6679C15.106 11.7392 15.128 11.8105 15.1499 11.8818C15.1543 11.896 15.1587 11.9102 15.1632 11.9247C15.2249 12.1251 15.2869 12.3253 15.3489 12.5256C15.3839 12.6386 15.4188 12.7516 15.4538 12.8647C15.4823 12.9569 15.5109 13.0491 15.5395 13.1413C15.5571 13.1982 15.5747 13.255 15.5923 13.3119C15.6004 13.3382 15.6086 13.3645 15.6167 13.3908C15.6558 13.5163 15.6939 13.6408 15.7194 13.7699C15.6785 13.7305 15.6537 13.6943 15.6277 13.6434C15.6198 13.6281 15.6119 13.6127 15.6038 13.5969C15.5954 13.5804 15.587 13.5639 15.5784 13.5469C15.5606 13.5121 15.5427 13.4774 15.5249 13.4426C15.5116 13.4166 15.5116 13.4166 15.498 13.3901C15.4625 13.321 15.4264 13.2522 15.3902 13.1835C15.3467 13.1009 15.3035 13.0182 15.2607 12.9354C15.1823 12.7838 15.1032 12.6329 15.0208 12.4835C14.9072 12.2768 14.8012 12.0661 14.6945 11.8558C14.6044 11.6782 14.5129 11.5015 14.4201 11.3253C14.3817 11.2524 14.3438 11.1793 14.3059 11.1061C14.2977 11.0904 14.2896 11.0748 14.2812 11.0586C14.2473 10.9935 14.2135 10.9283 14.1797 10.8632C14.1545 10.8147 14.1294 10.7663 14.1042 10.7179C14.096 10.702 14.0877 10.6861 14.0792 10.6698C14.0288 10.5728 13.9781 10.476 13.9273 10.3793C13.8508 10.2337 13.7753 10.0876 13.6999 9.9415C13.6381 9.82162 13.576 9.70184 13.5137 9.58218C13.4322 9.42564 13.3512 9.26889 13.2702 9.11207C13.2093 8.99403 13.1481 8.8761 13.0868 8.75826C12.9121 8.42261 12.7393 8.086 12.5666 7.74928C12.5093 7.6375 12.4519 7.52576 12.3942 7.41417C12.2585 7.15136 12.1249 6.8875 11.9927 6.6229C11.9746 6.58662 11.9564 6.55036 11.9382 6.5141C11.9127 6.46325 11.8874 6.41234 11.862 6.36142C11.8542 6.34598 11.8465 6.33054 11.8385 6.31463C11.8315 6.30049 11.8245 6.28636 11.8172 6.2718C11.8111 6.25943 11.8049 6.24706 11.7985 6.23431C11.7854 6.20391 11.7854 6.20391 11.7854 6.17087C11.7726 6.17163 11.7598 6.1724 11.7466 6.17319C11.2385 6.18964 10.7431 5.95546 10.3763 5.61346C10.3633 5.60115 10.3503 5.58884 10.3369 5.57616C10.3248 5.56521 10.3126 5.55427 10.3001 5.54299C9.95562 5.22 9.73225 4.70454 9.70881 4.23497C9.68767 3.60469 9.85376 3.0578 10.286 2.58984C10.2974 2.5777 10.3087 2.56556 10.3205 2.55305C10.3291 2.5433 10.3378 2.53355 10.3467 2.5235C10.5808 2.27056 10.9154 2.1019 11.2422 2.0079C11.2542 2.00443 11.2662 2.00096 11.2786 1.99738C11.6376 1.89866 12.037 1.90733 12.3944 2.0079Z" fill="#800000"/>
<path d="M19.6372 0.531307C20.0403 0.879865 20.2985 1.39158 20.344 1.92412C20.3719 2.52184 20.2281 3.07193 19.8276 3.52757C19.8023 3.55488 19.7769 3.58207 19.7514 3.60913C19.7389 3.62274 19.7264 3.63635 19.7136 3.65037C19.5021 3.873 19.2131 4.06767 18.912 4.13776C18.9122 4.15306 18.9122 4.15306 18.9124 4.16867C18.9131 4.26372 18.9092 4.35698 18.9005 4.45158C18.8992 4.46564 18.898 4.47971 18.8967 4.49419C18.8926 4.54104 18.8883 4.58787 18.8841 4.6347C18.881 4.66873 18.878 4.70276 18.875 4.73679C18.8667 4.83009 18.8582 4.92339 18.8498 5.01668C18.8407 5.11737 18.8318 5.21807 18.8228 5.31877C18.8051 5.51592 18.7874 5.71307 18.7696 5.91021C18.7552 6.07038 18.7408 6.23054 18.7265 6.39071C18.7223 6.43684 18.7182 6.48297 18.714 6.5291C18.713 6.54057 18.712 6.55203 18.7109 6.56385C18.682 6.88625 18.653 7.20864 18.6239 7.53103C18.6228 7.54318 18.6218 7.55533 18.6206 7.56784C18.6151 7.62941 18.6095 7.69097 18.604 7.75254C18.6023 7.77088 18.6023 7.77088 18.6006 7.78959C18.5984 7.81431 18.5962 7.83904 18.594 7.86376C18.5593 8.24883 18.5247 8.6339 18.4902 9.01899C18.4514 9.45166 18.4126 9.88433 18.3736 10.317C18.3695 10.3631 18.3653 10.4092 18.3612 10.4553C18.3596 10.4723 18.3596 10.4723 18.3581 10.4897C18.3426 10.6612 18.3273 10.8327 18.3119 11.0043C18.2945 11.1992 18.277 11.3941 18.2593 11.589C18.2503 11.6885 18.2413 11.788 18.2325 11.8876C18.2244 11.9786 18.2162 12.0695 18.2079 12.1605C18.2049 12.1935 18.2019 12.2266 18.199 12.2596C18.1951 12.3043 18.191 12.3489 18.1869 12.3936C18.1858 12.4066 18.1847 12.4196 18.1835 12.4329C18.1777 12.4936 18.1712 12.5437 18.1383 12.5958C18.0924 12.1558 18.0499 11.7155 18.0097 11.2749C18.0035 11.2069 17.9973 11.1389 17.991 11.0708C17.9726 10.8693 17.9542 10.6678 17.9358 10.4663C17.9253 10.3515 17.9148 10.2367 17.9044 10.122C17.6007 6.79649 17.6007 6.79649 17.437 4.80604C17.4359 4.79268 17.4348 4.77933 17.4337 4.76557C17.3952 4.28864 17.3952 4.28864 17.3966 4.16461C17.3968 4.14676 17.3969 4.12892 17.3971 4.11053C17.3972 4.09771 17.3974 4.08489 17.3976 4.07168C17.3786 4.06691 17.3596 4.06214 17.34 4.05723C17.1242 3.98434 16.938 3.82721 16.7722 3.67521C16.7525 3.65748 16.7525 3.65748 16.7324 3.6394C16.3389 3.26693 16.1369 2.7274 16.1107 2.19289C16.1 1.59062 16.3208 1.05805 16.7302 0.621794C16.8516 0.495932 16.9859 0.396872 17.1343 0.305194C17.1442 0.299 17.1542 0.292805 17.1645 0.286424C17.9509 -0.192197 18.9497 -0.0441888 19.6372 0.531307Z" fill="#800000"/>
</svg>
