<svg width="1445" height="663" viewBox="0 0 1445 663" fill="none" xmlns="http://www.w3.org/2000/svg">
<rect x="1.5" y="1.5" width="1442" height="660" fill="#EEF1F4"/>
<rect x="1.5" y="1.5" width="1442" height="660" stroke="#545F71" stroke-width="3"/>
<path d="M712.334 336.333L718.448 330.219C719.49 329.177 721.178 329.177 722.22 330.219L728.334 336.333M725.667 333.666L727.782 331.552C728.823 330.511 730.512 330.511 731.553 331.552L733.667 333.666M725.667 325.666H725.681M715.001 341.666H731.001C732.473 341.666 733.667 340.472 733.667 339V323C733.667 321.527 732.473 320.333 731.001 320.333H715.001C713.528 320.333 712.334 321.527 712.334 323V339C712.334 340.472 713.528 341.666 715.001 341.666Z" stroke="#545F71" stroke-width="2" stroke-linecap="round" stroke-linejoin="round"/>
</svg>
