<?xml version="1.0" encoding="UTF-8"?>
<svg version="1.1" xmlns="http://www.w3.org/2000/svg" width="103" height="156">
<path d="M0 0 C7.43907468 5.34560056 11.90823861 12.73659937 13.87109375 21.625 C15.26810392 30.52630377 14.15058121 38.55750827 12.3125 47.3125 C12.14169922 48.21661621 11.97089844 49.12073242 11.79492188 50.05224609 C10.40959655 56.04455763 8.48800382 58.89156157 3.31884766 62.24755859 C2.65675293 62.64023926 1.9946582 63.03291992 1.3125 63.4375 C0.38824219 64.04335937 -0.53601563 64.64921875 -1.48828125 65.2734375 C-2.73158203 66.03527344 -2.73158203 66.03527344 -4 66.8125 C-20.16012776 76.97666311 -34.67530019 88.39039712 -45.671875 104.05859375 C-46.33703125 104.84363281 -47.0021875 105.62867188 -47.6875 106.4375 C-48.6775 106.4375 -49.6675 106.4375 -50.6875 106.4375 C-48.77437373 85.39311102 -34.70742574 65.6829462 -24.0546875 48.07421875 C-23.64404053 47.39496338 -23.23339355 46.71570801 -22.81030273 46.01586914 C-22.04580126 44.755977 -21.27736752 43.49845855 -20.50415039 42.24389648 C-16.91783647 36.36106112 -15.41524661 32.37996151 -15.6875 25.4375 C-16.30625 26.30375 -16.925 27.17 -17.5625 28.0625 C-21.67914864 33.02842858 -28.23068041 37.43698381 -34.6875 38.4375 C-36.53217648 38.4558246 -38.37691287 38.47278504 -40.22167969 38.47436523 C-48.19075164 38.57207104 -52.72673268 39.80046715 -58.671875 45.52734375 C-60.60601318 47.36027702 -62.2570855 48.39198385 -64.6875 49.4375 C-64.24418597 43.89607464 -62.8904747 40.92166458 -59.6875 36.4375 C-56.85182653 31.90246986 -55.47830444 27.87163516 -54.75 22.5625 C-53.42342876 13.57129493 -50.09275559 6.65213707 -42.9375 0.90625 C-29.81109708 -7.66237413 -13.40624212 -8.00745088 0 0 Z " fill="#CEA460" transform="translate(76.6875,46.5625)"/>
<path d="M0 0 C3 0.375 3 0.375 6 2.375 C6.4375 5.8125 6.4375 5.8125 6 9.375 C4.1875 11.3125 4.1875 11.3125 2 12.375 C1.01 12.375 0.02 12.375 -1 12.375 C-1.26554687 13.08011719 -1.53109375 13.78523438 -1.8046875 14.51171875 C-3.06498967 17.53067786 -4.53957994 20.32685076 -6.125 23.1875 C-6.66382812 24.16332031 -7.20265625 25.13914062 -7.7578125 26.14453125 C-8.16773437 26.88058594 -8.57765625 27.61664063 -9 28.375 C-9.99 28.375 -10.98 28.375 -12 28.375 C-11.39552187 24.51884643 -10.20025582 21.53276858 -8.4375 18.0625 C-6.75681774 14.50960474 -5.69041089 11.88032333 -5.875 7.9375 C-6 4.375 -6 4.375 -4.875 1.875 C-3 0.375 -3 0.375 0 0 Z " fill="#D1A361" transform="translate(73,8.625)"/>
<path d="M0 0 C3.07921269 1.07772444 4.04512924 1.96525849 5.5 4.875 C5.25925978 8.24536311 4.91201979 9.46298021 2.5 11.875 C2.03927893 13.90213674 2.03927893 13.90213674 1.8671875 16.2265625 C1.78339844 17.07734375 1.69960938 17.928125 1.61328125 18.8046875 C1.53464844 19.69414062 1.45601562 20.58359375 1.375 21.5 C1.28863281 22.3971875 1.20226563 23.294375 1.11328125 24.21875 C0.9009076 26.4368748 0.69682915 28.65545069 0.5 30.875 C-0.49 30.545 -1.48 30.215 -2.5 29.875 C-2.5501123 29.30990723 -2.60022461 28.74481445 -2.65185547 28.16259766 C-2.88366272 25.60746147 -3.1291579 23.05382238 -3.375 20.5 C-3.45363281 19.61054688 -3.53226563 18.72109375 -3.61328125 17.8046875 C-3.69707031 16.95390625 -3.78085937 16.103125 -3.8671875 15.2265625 C-3.97716064 14.04827881 -3.97716064 14.04827881 -4.08935547 12.84619141 C-4.35884591 10.65079774 -4.35884591 10.65079774 -6.5 8.875 C-6.3125 5.375 -6.3125 5.375 -5.5 1.875 C-2.5 -0.125 -2.5 -0.125 0 0 Z " fill="#D7A26D" transform="translate(57.5,2.125)"/>
<path d="M0 0 C3.0625 0.3125 3.0625 0.3125 4.8125 1.4375 C6.0625 3.3125 6.0625 3.3125 6.89453125 6.10546875 C8.1477322 9.54653223 9.66638891 11.69705931 12 14.5 C12.68964844 15.33917969 13.37929688 16.17835937 14.08984375 17.04296875 C15.6884274 18.88213133 17.30805437 20.62405233 19.0625 22.3125 C18.0725 22.6425 17.0825 22.9725 16.0625 23.3125 C13.65234375 21.73046875 13.65234375 21.73046875 11 19.5 C9.68322266 18.40751953 9.68322266 18.40751953 8.33984375 17.29296875 C6.87019625 16.0149048 5.4396912 14.6896912 4.0625 13.3125 C2.928125 13.003125 1.79375 12.69375 0.625 12.375 C-4.48734894 10.85026435 -4.48734894 10.85026435 -5.9375 8.3125 C-5.64328296 3.50695496 -5.25668878 0.55922221 0 0 Z " fill="#CFA362" transform="translate(27.9375,15.6875)"/>
<path d="M0 0 C2 2 2 2 2.375 5.4375 C2 9 2 9 0.3125 10.9375 C-2 12 -2 12 -4.26171875 11.7890625 C-8.20054527 12.09248138 -10.07851926 13.99038953 -13.125 16.4375 C-18.6790393 20.8930131 -18.6790393 20.8930131 -22 22 C-22 19 -22 19 -19.4453125 16.29296875 C-17.79286079 14.72654056 -16.12095286 13.1837956 -14.44140625 11.64648438 C-10.91185648 8.29128585 -9.3315043 5.80042338 -8 1 C-5.23749964 -0.38125018 -3.05268901 -0.19079306 0 0 Z " fill="#D3A265" transform="translate(89,18)"/>
<path d="M0 0 C2 3 2 3 1.875 6.9375 C1.72041601 12.17617958 3.29553502 16.4412649 5.125 21.30078125 C6 24 6 24 6 28 C3 27 3 27 1.17578125 23.91015625 C0.54434632 22.6326637 -0.07636944 21.3498293 -0.6875 20.0625 C-1.00783203 19.41603516 -1.32816406 18.76957031 -1.65820312 18.10351562 C-4 13.29509262 -4 13.29509262 -4 11 C-5.2065625 10.690625 -5.2065625 10.690625 -6.4375 10.375 C-9 9 -9 9 -10 6.0625 C-10 3 -10 3 -8.6875 1.1875 C-5.40960661 -1.11916572 -3.85029709 -1.15508913 0 0 Z " fill="#D5A265" transform="translate(45,8)"/>
<path d="M0 0 C0.33 0 0.66 0 1 0 C1.24878906 0.88300781 1.49757813 1.76601563 1.75390625 2.67578125 C3.05792235 6.15452012 4.57151025 8.34566873 6.9375 11.1875 C7.62714844 12.02667969 8.31679688 12.86585937 9.02734375 13.73046875 C10.6259274 15.56963133 12.24555437 17.31155233 14 19 C13.01 19.33 12.02 19.66 11 20 C8.58984375 18.41796875 8.58984375 18.41796875 5.9375 16.1875 C5.05964844 15.45917969 4.18179688 14.73085938 3.27734375 13.98046875 C1.80769625 12.7024048 0.3771912 11.3771912 -1 10 C-2.98821313 9.60235737 -4.98944339 9.26224651 -7 9 C-7 8.67 -7 8.34 -7 8 C-4.36 8 -1.72 8 1 8 C0.67 7.34 0.34 6.68 0 6 C-0.039992 4.00039988 -0.04346799 1.99952758 0 0 Z " fill="#D89E66" transform="translate(33,19)"/>
<path d="M0 0 C0.33 0 0.66 0 1 0 C1.24042276 4.08718695 0.42258812 7.17679443 -1 11 C0.65 10.67 2.3 10.34 4 10 C3.07544441 11.508013 2.1349253 13.00624917 1.1875 14.5 C0.66542969 15.3353125 0.14335937 16.170625 -0.39453125 17.03125 C-0.92433594 17.6809375 -1.45414063 18.330625 -2 19 C-2.99 19 -3.98 19 -5 19 C-4.39297368 12.3227105 -2.22368606 6.29872004 0 0 Z " fill="#D29668" transform="translate(31,134)"/>
<path d="M0 0 C0.66 0 1.32 0 2 0 C2.09507063 6.43311296 2.15316726 12.65758005 1 19 C0.01 18.67 -0.98 18.34 -2 18 C-2.2361959 11.59646678 -1.823321 6.15370839 0 0 Z " fill="#D79C68" transform="translate(57,14)"/>
<path d="M0 0 C2.125 0.375 2.125 0.375 4 1 C3.67 3.64 3.34 6.28 3 9 C2.01 9 1.02 9 0 9 C-0.33 11.64 -0.66 14.28 -1 17 C-1.33 17 -1.66 17 -2 17 C-2.05383848 14.54137599 -2.09359038 12.0839245 -2.125 9.625 C-2.14175781 8.92632812 -2.15851562 8.22765625 -2.17578125 7.5078125 C-2.19344267 5.67102514 -2.10303261 3.83398037 -2 2 C-1.34 1.34 -0.68 0.68 0 0 Z " fill="#CCA55C" transform="translate(57,5)"/>
<path d="M0 0 C1.65 0.33 3.3 0.66 5 1 C6.42258812 4.82320557 7.24042276 7.91281305 7 12 C6.34 11.67 5.68 11.34 5 11 C5 9.68 5 8.36 5 7 C1.2236068 6.7018576 1.2236068 6.7018576 -1 8 C-1 7.01 -1 6.02 -1 5 C-1.66 4.67 -2.32 4.34 -3 4 C-2.34 4 -1.68 4 -1 4 C-0.67 2.68 -0.34 1.36 0 0 Z " fill="#CCA45E" transform="translate(39,9)"/>
<path d="M0 0 C2.97 0 5.94 0 9 0 C7.33333333 1.66666667 5.66666667 3.33333333 4 5 C3.278125 5.763125 2.55625 6.52625 1.8125 7.3125 C0 9 0 9 -2 9 C-1.125 2.25 -1.125 2.25 0 0 Z " fill="#CE9E65" transform="translate(14,87)"/>
<path d="M0 0 C1.40459731 2.59310273 2.54608353 5.25924537 3.625 8 C3.88539062 8.66 4.14578125 9.32 4.4140625 10 C5 12 5 12 5 16 C4.01 15.67 3.02 15.34 2 15 C0.76171875 12.3828125 0.76171875 12.3828125 -0.3125 9.125 C-0.67988281 8.05507813 -1.04726563 6.98515625 -1.42578125 5.8828125 C-2 3 -2 3 0 0 Z " fill="#E1AF73" transform="translate(46,20)"/>
<path d="M0 0 C2 3 2 3 1.625 5.6875 C1.41875 6.450625 1.2125 7.21375 1 8 C-1 4.25 -1 4.25 -1 2 C-2.65 2 -4.3 2 -6 2 C-7.20628008 4.33214148 -8.1654738 6.49642139 -9 9 C-9.6875 6.1875 -9.6875 6.1875 -10 3 C-7.1480252 -0.93844139 -4.53133218 -1.35939965 0 0 Z " fill="#DB9C6E" transform="translate(45,8)"/>
<path d="M0 0 C3.125 0.1875 3.125 0.1875 6.125 2.1875 C6.3125 5.8125 6.3125 5.8125 6.125 9.1875 C4.125 7.1875 4.125 7.1875 3.25 5.125 C2.28852629 2.98698083 2.28852629 2.98698083 0 2.4375 C-0.928125 2.31375 -0.928125 2.31375 -1.875 2.1875 C-2.205 3.5075 -2.535 4.8275 -2.875 6.1875 C-3.535 6.1875 -4.195 6.1875 -4.875 6.1875 C-3.80901015 0.24841371 -3.80901015 0.24841371 0 0 Z " fill="#DC9A6A" transform="translate(72.875,8.8125)"/>
<path d="M0 0 C1.7290774 -0.02725341 3.45828176 -0.04650987 5.1875 -0.0625 C6.15042969 -0.07410156 7.11335938 -0.08570313 8.10546875 -0.09765625 C10.85576513 -0.00486622 13.32479591 0.37888315 16 1 C16.33 2.32 16.66 3.64 17 5 C15 5 13 5 11 5 C11 4.34 11 3.68 11 3 C10.37351562 2.95101562 9.74703125 2.90203125 9.1015625 2.8515625 C8.28429688 2.77679688 7.46703125 2.70203125 6.625 2.625 C5.40683594 2.52058594 5.40683594 2.52058594 4.1640625 2.4140625 C2 2 2 2 0 0 Z " fill="#DDA76B" transform="translate(51,41)"/>
<path d="M0 0 C0.66 0.33 1.32 0.66 2 1 C2 1.99 2 2.98 2 4 C2.66 4.66 3.32 5.32 4 6 C3.9765625 8.6015625 3.9765625 8.6015625 3.625 11.625 C3.51414062 12.62789062 3.40328125 13.63078125 3.2890625 14.6640625 C3.19367187 15.43492188 3.09828125 16.20578125 3 17 C2.67 17 2.34 17 2 17 C1.8046875 14.98177083 1.609375 12.96354167 1.4140625 10.9453125 C1.13625251 8.77331755 1.13625251 8.77331755 -1 7 C-0.625 3.375 -0.625 3.375 0 0 Z " fill="#D49C64" transform="translate(52,4)"/>
<path d="M0 0 C0 0.99 0 1.98 0 3 C-2.5 4.6875 -2.5 4.6875 -5 6 C-5.99 5.01 -6.98 4.02 -8 3 C-5.36 2.01 -2.72 1.02 0 0 Z " fill="#D6A36A" transform="translate(46,42)"/>
<path d="M0 0 C0.33 0 0.66 0 1 0 C1.63934602 5.11476819 -0.59466453 8.67254378 -3 13 C-3.66 12.34 -4.32 11.68 -5 11 C-3.35 7.37 -1.7 3.74 0 0 Z " fill="#D89867" transform="translate(37,121)"/>
<path d="M0 0 C2.475 0.99 2.475 0.99 5 2 C3.71937515 3.7074998 2.38232443 5.37373596 1 7 C0.34 7 -0.32 7 -1 7 C-0.67 4.69 -0.34 2.38 0 0 Z " fill="#D9A272" transform="translate(13,89)"/>
<path d="M0 0 C0.33 0.66 0.66 1.32 1 2 C-0.1446875 1.9690625 -0.1446875 1.9690625 -1.3125 1.9375 C-4.10185786 1.87057159 -4.10185786 1.87057159 -7 3 C-7.33 4.65 -7.66 6.3 -8 8 C-8.66 7.67 -9.32 7.34 -10 7 C-9.39816251 4.97954558 -8.72693904 2.97888961 -8 1 C-5.29120665 -0.35439668 -2.99066732 -0.06501451 0 0 Z " fill="#DA9A6A" transform="translate(89,18)"/>
<path d="M0 0 C0.99 0.33 1.98 0.66 3 1 C2.34 2.98 1.68 4.96 1 7 C0.01 7 -0.98 7 -2 7 C-1.125 2.25 -1.125 2.25 0 0 Z " fill="#D48E67" transform="translate(63,30)"/>
<path d="M0 0 C2.475 0.99 2.475 0.99 5 2 C3.71034824 3.37562854 2.37310707 4.70766393 1 6 C0.34 6 -0.32 6 -1 6 C-0.67 4.02 -0.34 2.04 0 0 Z " fill="#D59F66" transform="translate(51,75)"/>
<path d="M0 0 C0.66 1.32 1.32 2.64 2 4 C-1.75 7 -1.75 7 -4 7 C-2.92598892 4.08482708 -2.22189824 2.22189824 0 0 Z " fill="#D49E67" transform="translate(77,105)"/>
<path d="M0 0 C2.0343459 1.41519715 2.90410393 2.54982123 3.421875 4.98046875 C3.66273952 6.98176954 3.83532741 8.9909944 4 11 C3.731875 10.443125 3.46375 9.88625 3.1875 9.3125 C1.99670459 6.90178463 1.99670459 6.90178463 0.3125 4.375 C-0.120625 3.59125 -0.55375 2.8075 -1 2 C-0.67 1.34 -0.34 0.68 0 0 Z " fill="#D79D66" transform="translate(85,57)"/>
<path d="M0 0 C4.875 4.625 4.875 4.625 6 8 C3.11562221 6.70700306 1.12780579 5.34058637 -1 3 C-0.67 2.01 -0.34 1.02 0 0 Z " fill="#D39F69" transform="translate(79,49)"/>
<path d="M0 0 C1.43088528 2.86177057 0.59991697 4.93375773 0 8 C-1.32 8 -2.64 8 -4 8 C-2.66666667 5.33333333 -1.33333333 2.66666667 0 0 Z " fill="#D29A66" transform="translate(20,78)"/>
<path d="M0 0 C0.33 1.32 0.66 2.64 1 4 C-0.98 5.32 -2.96 6.64 -5 8 C-5 7.01 -5 6.02 -5 5 C-4.34 5 -3.68 5 -3 5 C-3 4.34 -3 3.68 -3 3 C-1.5 1.375 -1.5 1.375 0 0 Z " fill="#DD9B6E" transform="translate(85,100)"/>
<path d="M0 0 C0.99 0 1.98 0 3 0 C3.33 1.98 3.66 3.96 4 6 C3.01 5.67 2.02 5.34 1 5 C0.67 3.35 0.34 1.7 0 0 Z " fill="#DC956D" transform="translate(47,30)"/>
</svg>
