<?xml version="1.0" encoding="UTF-8"?>
<svg version="1.1" xmlns="http://www.w3.org/2000/svg" width="82" height="151">
<path d="M0 0 C7.22940131 4.86567736 11.23195281 12.53079413 13.60546875 20.75 C15.3273016 29.88369611 14.53839561 37.91225852 12.48046875 46.875 C12.2805835 47.77549072 12.08069824 48.67598145 11.87475586 49.60375977 C10.15870131 56.4236471 7.64423753 59.74318894 1.6953125 63.671875 C0.65503906 64.27515625 -0.38523437 64.8784375 -1.45703125 65.5 C-8.12965807 69.46676028 -14.25729806 73.99580528 -20.39453125 78.75 C-21.18601563 79.33523437 -21.9775 79.92046875 -22.79296875 80.5234375 C-31.94564975 87.36386225 -39.38463332 95.17140646 -45.703125 104.6953125 C-46.26128906 105.37335938 -46.81945312 106.05140625 -47.39453125 106.75 C-48.38453125 106.75 -49.37453125 106.75 -50.39453125 106.75 C-48.96847401 93.63027342 -43.41453839 82.28055263 -37.08203125 70.875 C-36.59565186 69.99513428 -36.10927246 69.11526855 -35.6081543 68.20874023 C-31.46874902 60.77539307 -26.98447014 53.63016485 -22.26171875 46.5546875 C-18.05791474 40.11939617 -15.09438543 34.50088504 -14.39453125 26.75 C-17.53022836 28.13827119 -19.59194748 29.78574159 -22.01953125 32.1875 C-28.50578973 37.92259252 -34.93593189 38.76319047 -43.39453125 38.9375 C-50.10966672 39.25935834 -53.47134521 41.29150938 -58.30859375 45.83984375 C-60.27415937 47.63977182 -61.9646319 48.69997562 -64.39453125 49.75 C-63.89155736 44.68215702 -62.25618933 41.56785295 -59.51953125 37.3125 C-55.627877 30.96503051 -54.24594283 25.46119498 -53.01171875 18.1015625 C-51.56250963 10.23180666 -48.36049285 5.96172096 -41.90625 1.2890625 C-28.38841745 -6.99402618 -14.1312959 -7.3768592 0 0 Z " fill="#7E0101" transform="translate(64.39453125,42.25)"/>
<path d="M0 0 C3.31518565 2.21012377 3.78524072 5.35572215 5 9 C7.5329674 13.27984147 10.44912091 16.54256509 14 20 C14.66 20.99 15.32 21.98 16 23 C11.34990327 23 8.54400076 19.66702298 5.08984375 16.81835938 C2.22543192 14.52079251 -0.37057109 12.72403873 -3.796875 11.36328125 C-7 10 -7 10 -9 7 C-8.8125 4.4375 -8.8125 4.4375 -8 2 C-4.76746204 -0.15502531 -3.74849077 -0.46856135 0 0 Z " fill="#740B0D" transform="translate(19,12)"/>
<path d="M0 0 C2 3 2 3 1.875 6.875 C1.7126409 12.35912956 3.37278255 17.03254875 5.125 22.1796875 C6 25 6 25 6 28 C5.34 28 4.68 28 4 28 C3.67386719 27.33613281 3.34773438 26.67226563 3.01171875 25.98828125 C0.25338463 20.4110217 0.25338463 20.4110217 -2.8125 15 C-4 13 -4 13 -4 11 C-5.2065625 10.690625 -5.2065625 10.690625 -6.4375 10.375 C-9 9 -9 9 -9.9375 6.0625 C-10 3 -10 3 -8 0 C-4.67212881 -1.1092904 -3.3006216 -1.01557588 0 0 Z " fill="#7A0506" transform="translate(33,4)"/>
<path d="M0 0 C3.0625 0.3125 3.0625 0.3125 4.9375 1.4375 C6.62820175 4.25533625 6.59794229 6.09984627 6.0625 9.3125 C3.67357499 11.19849343 2.14398442 12.3125 -0.9375 12.3125 C-1.20691406 13.02792969 -1.47632813 13.74335938 -1.75390625 14.48046875 C-2.94914779 17.34037013 -4.31599208 19.94731465 -5.875 22.625 C-6.37902344 23.50800781 -6.88304687 24.39101563 -7.40234375 25.30078125 C-8.16224609 26.29658203 -8.16224609 26.29658203 -8.9375 27.3125 C-9.9275 27.3125 -10.9175 27.3125 -11.9375 27.3125 C-11.14625876 25.24983676 -10.35448909 23.18737621 -9.5625 21.125 C-9.12164062 19.97644531 -8.68078125 18.82789062 -8.2265625 17.64453125 C-7.44391332 15.62150169 -6.63347511 13.60854976 -5.7734375 11.6171875 C-4.72794223 9.14334841 -4.72794223 9.14334841 -4.9375 5.625 C-4.9375 1.30351607 -4.30485513 0.45796331 0 0 Z " fill="#731213" transform="translate(60.9375,4.6875)"/>
<path d="M0 0 C3.625 0.375 3.625 0.375 7 1 C7.66 2.98 8.32 4.96 9 7 C6.8125 9.5 6.8125 9.5 4 12 C3.2678125 11.9484375 2.535625 11.896875 1.78125 11.84375 C-2.46862481 12.08250701 -5.0024878 14.47743663 -8.3125 17 C-8.95767578 17.47695313 -9.60285156 17.95390625 -10.26757812 18.4453125 C-11.85292992 19.61964716 -13.42755839 20.80843396 -15 22 C-15.66 21.67 -16.32 21.34 -17 21 C-15.88200014 19.66079162 -14.75538103 18.32877444 -13.625 17 C-12.68527344 15.88625 -12.68527344 15.88625 -11.7265625 14.75 C-10.87191406 13.88375 -10.87191406 13.88375 -10 13 C-9.34 13 -8.68 13 -8 13 C-8 12.34 -8 11.68 -8 11 C-7.071875 10.1028125 -7.071875 10.1028125 -6.125 9.1875 C-3.85920249 6.85506138 -3.10962828 5.01184819 -2 2 C-1.34 1.34 -0.68 0.68 0 0 Z " fill="#71090B" transform="translate(71,14)"/>
<path d="M0 0 C1.45742463 -0.08096803 2.91612807 -0.13917774 4.375 -0.1875 C5.18710937 -0.22230469 5.99921875 -0.25710937 6.8359375 -0.29296875 C7.55007812 -0.19628906 8.26421875 -0.09960938 9 0 C11 3 11 3 10.75 5.5625 C10 8 10 8 8 10 C7.5726095 11.91376631 7.5726095 11.91376631 7.4375 14.09765625 C7.36273438 14.89880859 7.28796875 15.69996094 7.2109375 16.52539062 C7.06998996 18.22067634 6.92936643 19.91598902 6.7890625 21.61132812 C6.67691406 22.81112305 6.67691406 22.81112305 6.5625 24.03515625 C6.50191406 24.7712915 6.44132812 25.50742676 6.37890625 26.26586914 C6.25386719 26.83813232 6.12882812 27.41039551 6 28 C5.34 28.33 4.68 28.66 4 29 C2.11819361 25.23638723 2.6674978 20.39142318 2.5703125 16.20898438 C2.59924468 11.93232559 2.59924468 11.93232559 0.45068359 8.48413086 C-0.02804199 7.99436768 -0.50676758 7.50460449 -1 7 C-0.6875 3.3125 -0.6875 3.3125 0 0 Z " fill="#7B0506" transform="translate(40,0)"/>
<path d="M0 0 C0.33 0.99 0.66 1.98 1 3 C3.50447516 4.21869929 3.50447516 4.21869929 6 5 C6 8.96800545 4.58084904 10.05729966 2.0625 13.0625 C-0.75398315 16.34455941 -0.75398315 16.34455941 -3 20 C-3.99 20 -4.98 20 -6 20 C-5.24318777 13.0373275 -3.92513415 5.88770122 0 0 Z " fill="#7B0506" transform="translate(20,129)"/>
<path d="M0 0 C2 3 2 3 1.875 6.875 C1.7126409 12.35912956 3.37278255 17.03254875 5.125 22.1796875 C6 25 6 25 6 28 C5.34 28 4.68 28 4 28 C1.66666667 23.33333333 -0.66666667 18.66666667 -3 14 C-2.01 14.33 -1.02 14.66 0 15 C0.02696365 13.20841511 0.04637917 11.41671527 0.0625 9.625 C0.07410156 8.62726562 0.08570313 7.62953125 0.09765625 6.6015625 C0.18006602 4.01567547 0.18006602 4.01567547 -1 2 C-4.02934491 1.34227572 -4.02934491 1.34227572 -7 1 C-7.33 2.98 -7.66 4.96 -8 7 C-8.66 7 -9.32 7 -10 7 C-9.75 4.125 -9.75 4.125 -9 1 C-5.99472217 -1.46862107 -3.58197907 -1.22541389 0 0 Z " fill="#6C1214" transform="translate(33,4)"/>
<path d="M0 0 C0.82638376 2.89234315 1 4.88742431 1 8 C2.65 7.67 4.3 7.34 6 7 C2.23225289 10.88192126 -1.62797789 14.79531881 -6 18 C-6.66 18 -7.32 18 -8 18 C-7.47729735 13.09690194 -5.9987369 9.81611493 -3.4375 5.625 C-2.79683594 4.56539063 -2.15617188 3.50578125 -1.49609375 2.4140625 C-1.00238281 1.61742188 -0.50867188 0.82078125 0 0 Z " fill="#760708" transform="translate(8,74)"/>
<path d="M0 0 C1.99954746 -0.04254356 4.00041636 -0.04080783 6 0 C7 1 7 1 7.4375 4.3125 C7 8 7 8 4 10.4375 C2.515 11.2109375 2.515 11.2109375 1 12 C0.34 11.67 -0.32 11.34 -1 11 C-1 7.25838897 -0.48661829 3.71046443 0 0 Z " fill="#7A0304" transform="translate(58,5)"/>
<path d="M0 0 C0.66 0.66 1.32 1.32 2 2 C1.67028521 5.29714793 1.3773161 6.6226839 -1 9 C-1.4273905 10.91376631 -1.4273905 10.91376631 -1.5625 13.09765625 C-1.63726562 13.89880859 -1.71203125 14.69996094 -1.7890625 15.52539062 C-1.93001004 17.22067634 -2.07063357 18.91598902 -2.2109375 20.61132812 C-2.28570312 21.41119141 -2.36046875 22.21105469 -2.4375 23.03515625 C-2.49808594 23.7712915 -2.55867188 24.50742676 -2.62109375 25.26586914 C-2.74613281 25.83813232 -2.87117188 26.41039551 -3 27 C-3.66 27.33 -4.32 27.66 -5 28 C-6.50156874 24.99686252 -6.09281204 22.20932478 -6.0625 18.875 C-6.05347656 17.59367187 -6.04445312 16.31234375 -6.03515625 14.9921875 C-6.02355469 14.00476562 -6.01195312 13.01734375 -6 12 C-5.01 12.495 -5.01 12.495 -4 13 C-3.87625 12.030625 -3.7525 11.06125 -3.625 10.0625 C-3.41875 9.051875 -3.2125 8.04125 -3 7 C-2.34 6.67 -1.68 6.34 -1 6 C-0.34227572 2.97065509 -0.34227572 2.97065509 0 0 Z " fill="#6B1616" transform="translate(49,1)"/>
<path d="M0 0 C8.04087169 0.64326974 12.69288292 4.08635526 18 10 C18.33 10.99 18.66 11.98 19 13 C16.39417629 13.93065133 15.35801776 14.14917407 12.75 13.0625 C12.1725 12.711875 11.595 12.36125 11 12 C11 11.01 11 10.02 11 9 C10.34 8.67 9.68 8.34 9 8 C9.66 7.34 10.32 6.68 11 6 C7.44360764 3.69880494 4.05281712 2.22527029 0 1 C0 0.67 0 0.34 0 0 Z " fill="#73070A" transform="translate(53,39)"/>
<path d="M0 0 C1.98 0 3.96 0 6 0 C2.3956912 4.75113432 -2.34393496 6.01092127 -8 7 C-12.67979642 7.22816435 -17.31936109 7.18209978 -22 7 C-21.67 6.34 -21.34 5.68 -21 5 C-19.81921875 4.93941406 -18.6384375 4.87882812 -17.421875 4.81640625 C-15.8645723 4.73197418 -14.30728121 4.64732751 -12.75 4.5625 C-11.97269531 4.52318359 -11.19539063 4.48386719 -10.39453125 4.44335938 C-9.64042969 4.40146484 -8.88632812 4.35957031 -8.109375 4.31640625 C-7.41811523 4.27974854 -6.72685547 4.24309082 -6.01464844 4.20532227 C-3.93371671 3.99324476 -2.01427578 3.55491323 0 3 C0 2.01 0 1.02 0 0 Z " fill="#6A0A0D" transform="translate(36,74)"/>
<path d="M0 0 C3.04189468 2.94971605 5.96422641 5.98726771 8.8125 9.125 C9.41707031 9.78757812 10.02164063 10.45015625 10.64453125 11.1328125 C12 13 12 13 12 16 C7.30840284 12.61227103 2.9700218 9.21814817 -1 5 C-0.01 5 0.98 5 2 5 C1.34 4.34 0.68 3.68 0 3 C0 2.01 0 1.02 0 0 Z " fill="#6E1415" transform="translate(22,20)"/>
<path d="M0 0 C3.01189618 0.43721074 5.27368191 0.76822978 8 2 C10 5.125 10 5.125 11 8 C7.58056494 7.57730231 4.27825654 7.08008783 1 6 C-0.625 3.375 -0.625 3.375 -1 1 C-0.67 0.67 -0.34 0.34 0 0 Z " fill="#7E0306" transform="translate(14,18)"/>
<path d="M0 0 C1.08629024 3.2371449 0.94001857 4.93179065 -0.375 8.0625 C-0.65085937 8.73410156 -0.92671875 9.40570313 -1.2109375 10.09765625 C-1.47132812 10.72542969 -1.73171875 11.35320312 -2 12 C-2.33 12.99 -2.66 13.98 -3 15 C-2.34 15 -1.68 15 -1 15 C-1.99 17.475 -1.99 17.475 -3 20 C-3.99 20 -4.98 20 -6 20 C-5.24318777 13.0373275 -3.92513415 5.88770122 0 0 Z " fill="#701013" transform="translate(20,129)"/>
<path d="M0 0 C0.33 0.66 0.66 1.32 1 2 C0.01211592 3.74526188 -0.9820287 5.48773681 -2.02734375 7.19921875 C-3.15470587 9.05377631 -3.15470587 9.05377631 -3.4375 11.625 C-4.5055205 16.13441987 -8.30278772 18.53519181 -12 21 C-10.54246649 17.0624841 -8.68902451 13.55487825 -6.5625 9.9375 C-5.66724609 8.40416016 -5.66724609 8.40416016 -4.75390625 6.83984375 C-3.27479084 4.4449286 -1.73512851 2.21268681 0 0 Z " fill="#6B0B0E" transform="translate(41,91)"/>
<path d="M0 0 C4.875 0.875 4.875 0.875 6 2 C6.04063832 3.66617115 6.042721 5.33388095 6 7 C5.01 7.33 4.02 7.66 3 8 C0.9375 6.25 0.9375 6.25 -1 4 C-0.75 1.75 -0.75 1.75 0 0 Z " fill="#7D0304" transform="translate(72,15)"/>
<path d="M0 0 C0.99 0.33 1.98 0.66 3 1 C0.81395715 2.41895708 -1.37377014 3.83519792 -3.5625 5.25 C-4.17158203 5.64574219 -4.78066406 6.04148437 -5.40820312 6.44921875 C-9.53180938 9.1110175 -13.71958101 11.59811753 -18 14 C-16.61415403 9.84246209 -13.69360927 8.6206911 -10.125 6.4375 C-8.85676847 5.64453503 -7.58853922 4.85156641 -6.3203125 4.05859375 C-5.22460938 3.37925781 -4.12890625 2.69992188 -3 2 C-2.01 1.34 -1.02 0.68 0 0 Z " fill="#6C0D11" transform="translate(67,102)"/>
<path d="M0 0 C1 3 1 3 -0.43359375 5.91796875 C-1.09488281 6.99691406 -1.75617187 8.07585937 -2.4375 9.1875 C-3.09621094 10.27417969 -3.75492187 11.36085938 -4.43359375 12.48046875 C-5.20896484 13.72763672 -5.20896484 13.72763672 -6 15 C-5.34 15.33 -4.68 15.66 -4 16 C-5.98 16.99 -5.98 16.99 -8 18 C-7.47729735 13.09690194 -5.9987369 9.81611493 -3.4375 5.625 C-2.79683594 4.56539063 -2.15617188 3.50578125 -1.49609375 2.4140625 C-1.00238281 1.61742188 -0.50867188 0.82078125 0 0 Z " fill="#771A1C" transform="translate(8,74)"/>
<path d="M0 0 C0.66 0.66 1.32 1.32 2 2 C1.82194873 5.38297413 1.21162756 6.76272061 -1.0625 9.3125 C-2.0215625 10.1478125 -2.0215625 10.1478125 -3 11 C-3.33 10.34 -3.66 9.68 -4 9 C-3.22265625 6.8359375 -3.22265625 6.8359375 -2.0625 4.375 C-1.68222656 3.55773437 -1.30195312 2.74046875 -0.91015625 1.8984375 C-0.60980469 1.27195312 -0.30945312 0.64546875 0 0 Z " fill="#65181B" transform="translate(53,22)"/>
<path d="M0 0 C1.305239 3.91571701 0.32239848 5.03892997 -1.4375 8.6875 C-1.91058594 9.68136719 -2.38367188 10.67523438 -2.87109375 11.69921875 C-3.42990234 12.83810547 -3.42990234 12.83810547 -4 14 C-4.66 14 -5.32 14 -6 14 C-4.45941767 8.98491285 -2.97068161 4.3852919 0 0 Z " fill="#6A090B" transform="translate(27,114)"/>
<path d="M0 0 C1.32 0.66 2.64 1.32 4 2 C1.03716687 4.38672669 -1.94270509 6.7353371 -5 9 C-5.66 8.67 -6.32 8.34 -7 8 C-4.69 5.36 -2.38 2.72 0 0 Z " fill="#681B1F" transform="translate(61,27)"/>
<path d="M0 0 C3.625 0.375 3.625 0.375 7 1 C6.67 1.66 6.34 2.32 6 3 C4.35 2.67 2.7 2.34 1 2 C0.34 3.98 -0.32 5.96 -1 8 C-1.99 7.67 -2.98 7.34 -4 7 C-2.92598892 4.08482708 -2.22189824 2.22189824 0 0 Z " fill="#711219" transform="translate(71,14)"/>
<path d="M0 0 C1.9375 0.3125 1.9375 0.3125 4 1 C4.33 1.99 4.66 2.98 5 4 C3.02 4.66 1.04 5.32 -1 6 C-0.67 4.02 -0.34 2.04 0 0 Z " fill="#830201" transform="translate(26,5)"/>
<path d="M0 0 C-2.31 2.31 -4.62 4.62 -7 7 C-8 4 -8 4 -7 1 C-2.55696203 -1.27848101 -2.55696203 -1.27848101 0 0 Z " fill="#750A0E" transform="translate(50,67)"/>
<path d="M0 0 C0.66 0.99 1.32 1.98 2 3 C2.66 2.67 3.32 2.34 4 2 C3.34 3.65 2.68 5.3 2 7 C1.01 7 0.02 7 -1 7 C-0.67 4.69 -0.34 2.38 0 0 Z " fill="#6A2229" transform="translate(15,142)"/>
<path d="M0 0 C2.5654594 2.5654594 2.54046087 4.47686668 3 8 C2.34 8 1.68 8 1 8 C-0.42944945 5.64561267 -1.08661261 4.51967567 -0.625 1.75 C-0.41875 1.1725 -0.2125 0.595 0 0 Z " fill="#671D1E" transform="translate(36,24)"/>
<path d="M0 0 C0.99 0.33 1.98 0.66 3 1 C4.1875 3.5625 4.1875 3.5625 5 6 C3.68 6.33 2.36 6.66 1 7 C0.67 6.34 0.34 5.68 0 5 C0.66 5 1.32 5 2 5 C2 4.01 2 3.02 2 2 C1.34 2 0.68 2 0 2 C0 1.34 0 0.68 0 0 Z " fill="#700A0A" transform="translate(67,46)"/>
</svg>
